<?xml version="1.0" encoding="UTF-8" standalone="no"?>
<svg
   width="500pt"
   height="500pt"
   viewBox="0 0 500 500"
   version="1.1"
   id="svg2"
   inkscape:version="1.1.1 (3bf5ae0d25, 2021-09-20)"
   sodipodi:docname="布丁繪圖頭像 沒有表情.svg"
   inkscape:export-filename="D:\OUTTY_DOCUMENT\基本文件\2011~ 政大圖檔所博士班\布丁繪圖頭像 (背景).png"
   inkscape:export-xdpi="80.540001"
   inkscape:export-ydpi="80.540001"
   xmlns:inkscape="http://www.inkscape.org/namespaces/inkscape"
   xmlns:sodipodi="http://sodipodi.sourceforge.net/DTD/sodipodi-0.dtd"
   xmlns:xlink="http://www.w3.org/1999/xlink"
   xmlns="http://www.w3.org/2000/svg"
   xmlns:svg="http://www.w3.org/2000/svg"
   xmlns:rdf="http://www.w3.org/1999/02/22-rdf-syntax-ns#"
   xmlns:cc="http://creativecommons.org/ns#"
   xmlns:dc="http://purl.org/dc/elements/1.1/">
  <metadata
     id="metadata40">
    <rdf:RDF>
      <cc:Work
         rdf:about="">
        <dc:format>image/svg+xml</dc:format>
        <dc:type
           rdf:resource="http://purl.org/dc/dcmitype/StillImage" />
      </cc:Work>
    </rdf:RDF>
  </metadata>
  <defs
     id="defs38">
    <linearGradient
       id="linearGradient3019">
      <stop
         style="stop-color:#996931;stop-opacity:1;"
         offset="0"
         id="stop3021" />
      <stop
         style="stop-color:#ce8e42;stop-opacity:1;"
         offset="1"
         id="stop3023" />
    </linearGradient>
    <radialGradient
       inkscape:collect="always"
       xlink:href="#linearGradient3019"
       id="radialGradient989"
       cx="594.1701"
       cy="574.52112"
       fx="594.1701"
       fy="574.52112"
       r="296.51849"
       gradientTransform="matrix(-0.02811401,-2.0112976,1.9334075,-0.02702528,-499.90882,1791.4646)"
       gradientUnits="userSpaceOnUse" />
  </defs>
  <sodipodi:namedview
     pagecolor="#ffffff"
     bordercolor="#666666"
     borderopacity="1"
     objecttolerance="10"
     gridtolerance="10"
     guidetolerance="10"
     inkscape:pageopacity="0"
     inkscape:pageshadow="2"
     inkscape:window-width="1920"
     inkscape:window-height="1007"
     id="namedview36"
     showgrid="false"
     inkscape:zoom="0.37760001"
     inkscape:cx="366.79025"
     inkscape:cy="247.61652"
     inkscape:window-x="1365"
     inkscape:window-y="0"
     inkscape:window-maximized="1"
     inkscape:current-layer="svg2"
     inkscape:pagecheckerboard="0"
     inkscape:document-units="pt" />
  <path
     id="path105"
     style="fill:url(#radialGradient989);fill-opacity:1;stroke-width:1.33333"
     d="m 439.13281,55.933594 c -42.0099,-0.208333 -84.06627,6.82487 -123.59961,21.033203 -51.64,18.426667 -98.96692,48.747443 -137.43359,87.800783 -24.26667,24.4 -44.53281,52.62575 -61.13281,82.73242 -13.06256,24.98693 -14.76344,39.82625 -29.761797,66.0874 C 51.5187,380.98836 80.838278,511.8717 104.19922,566 c 15.86667,37 38.41463,71.07935 65.66797,100.66602 h 46.69922 72.80078 190.66601 186.63282 V 527.86719 366.13281 259.9668 136.69922 c -44.36,-35.45333 -96.75987,-61.21974 -152.53321,-72.566408 -24.62,-5.344999 -49.79406,-8.074218 -75,-8.199218 z M 415.69922,268.09961 c 0.003,6e-5 0.006,0.002 0.01,0.002 -0.009,-1.6e-4 -0.0183,0.002 -0.0273,0.002 0.006,8e-5 0.0118,-0.004 0.0176,-0.004 z m 6.16601,4.55273 c 0.0174,0.0271 0.0514,0.0531 0.0684,0.0801 0.17669,0.28048 0.33059,0.57418 0.50586,0.85547 -0.17645,-0.2832 -0.34166,-0.57311 -0.51953,-0.85547 -0.0165,-0.0261 -0.0379,-0.0538 -0.0547,-0.0801 z m 7.24219,12.22071 c 2.61622,4.60906 5.19552,9.24037 7.85938,13.82617 5.02155,8.85594 10.24715,17.59193 15.45898,26.33398 -5.21376,-8.74126 -10.44472,-17.47275 -15.46484,-26.32617 -2.66353,-4.58523 -5.23588,-9.22373 -7.85352,-13.83398 z m -15.7168,33.16406 c 0.0935,0.093 0.1811,0.19088 0.2754,0.2832 3.64871,3.50414 6.93038,7.33681 10.13867,11.23438 -3.20742,-3.89299 -6.491,-7.71756 -10.13867,-11.22071 -0.0965,-0.0945 -0.17969,-0.20158 -0.2754,-0.29687 z m 19.47657,22.42969 c 15.6,19.13333 30.29294,38.98708 44.59961,59.09375 2.7546,3.74574 5.17728,7.74706 7.71093,11.66211 -2.53622,-3.90935 -4.95698,-7.91139 -7.71093,-11.65625 -14.30667,-20.10667 -28.99961,-39.96628 -44.59961,-59.09961 z m 69.34375,84.7207 c -0.005,0.003 -0.006,0.009 -0.0117,0.0117 -0.0568,0.0134 -0.11676,0.0109 -0.17383,0.0234 0.0614,-0.0134 0.12447,-0.0208 0.18555,-0.0352 z m -359.03711,10.7793 c -1.10669,0.97053 -2.63632,1.77393 -3.87305,2.75976 1.23886,-0.98423 2.76466,-1.78563 3.87305,-2.75976 z m 0.16992,0.13281 c 1.26458,3.07816 1.85133,7.24334 5.52344,8.36719 3.98732,1.63803 8.18524,2.46628 12.42969,3.0957 -4.25091,-0.62415 -8.45699,-1.44438 -12.44336,-3.08203 -3.66855,-1.12276 -4.24824,-5.30274 -5.50977,-8.38086 z m -5.5918,4.31445 c -0.006,0.01 -0.0157,0.0174 -0.0215,0.0274 0.006,-0.01 0.0157,-0.0175 0.0215,-0.0274 z m 2.52539,8.57813 c 0.73037,0.76578 1.48313,1.52623 2.14258,2.33789 -0.65899,-0.81114 -1.41368,-1.57128 -2.14258,-2.33789 z m 34.54102,0.44922 c 17.09248,2.21778 34.16147,4.70091 51.2793,6.71093 -17.11944,-2.01033 -34.18549,-4.49314 -51.2793,-6.71093 z m -32.29492,2.01562 c 0.71005,0.89456 1.29432,1.85634 1.58594,2.96485 -0.29443,-1.10564 -0.87505,-2.06942 -1.58594,-2.96485 z m 85.60937,4.96094 c 17.12946,2.45282 34.32038,4.61117 51.5,6.68164 5.19507,0.71473 10.40695,1.42439 15.63477,1.92383 -5.22995,-0.49457 -10.44356,-1.20101 -15.64063,-1.91602 -17.18173,-2.07072 -34.36305,-4.23578 -51.49414,-6.68945 z m 67.37696,8.62891 c 2.36037,0.22247 4.72471,0.38737 7.09179,0.50195 -2.36725,-0.11272 -4.73123,-0.28176 -7.09179,-0.50195 z m 8.33398,0.55468 c 2.24107,0.0868 4.48533,0.10853 6.73242,0.0586 -2.24713,0.0503 -4.49128,0.0266 -6.73242,-0.0586 z m 30.22852,2.76367 c 0.0415,0.0142 0.0855,0.0209 0.12695,0.0352 0.0529,0.092 0.0923,0.19616 0.14453,0.28906 -0.0534,-0.095 -0.10213,-0.19496 -0.15625,-0.28906 -0.0379,-0.0131 -0.0773,-0.0222 -0.11523,-0.0352 z m 1.60351,3.00196 c 0.0613,0.14208 0.12103,0.28051 0.17969,0.42383 -0.0584,-0.1423 -0.11871,-0.28274 -0.17969,-0.42383 z m 1.21484,3.58789 c 0.0126,0.0531 0.025,0.10504 0.0371,0.1582 -0.0121,-0.0529 -0.0245,-0.1054 -0.0371,-0.1582 z m 0.45508,3.61523 c 6e-5,0.015 -0.002,0.0299 -0.002,0.0449 -1e-5,-0.015 0.002,-0.0299 0.002,-0.0449 z m -0.47265,3.52344 c -0.004,0.0129 -0.002,0.0261 -0.006,0.0391 -0.0128,0.048 -0.034,0.0927 -0.0469,0.14063 0.014,-0.052 0.033,-0.10226 0.0469,-0.1543 0.002,-0.008 0.003,-0.0169 0.006,-0.0254 z m -1.92383,5.91016 c -0.051,0.13395 -0.10447,0.26676 -0.15625,0.40039 0.0518,-0.13361 0.10525,-0.26647 0.15625,-0.40039 z m -2.43555,5.71289 c -0.10183,0.21808 -0.20924,0.43291 -0.3125,0.65039 0.10319,-0.21733 0.21074,-0.43246 0.3125,-0.65039 z m -5.67187,11.08008 c -0.0827,0.15552 -0.15957,0.31519 -0.24219,0.4707 -0.0268,0.0491 -0.0629,0.0916 -0.0898,0.14062 0.0241,-0.0439 0.0521,-0.0849 0.0762,-0.1289 0.0852,-0.16035 0.17052,-0.32203 0.25586,-0.48242 z m -4.65039,7.32226 c -0.0697,0.0945 -0.13885,0.18905 -0.20899,0.2832 0.0701,-0.0941 0.13937,-0.18877 0.20899,-0.2832 z m -155.60352,1.11914 c 0.0185,0.0354 0.0342,0.072 0.0527,0.10742 -0.002,-0.004 -0.006,-0.008 -0.008,-0.0117 -0.0164,-0.0313 -0.0286,-0.0644 -0.0449,-0.0957 z m 150.39649,5.21484 c -0.14587,0.16156 -0.29255,0.32174 -0.43946,0.48243 0.14689,-0.16057 0.29362,-0.32099 0.43946,-0.48243 z m -5.64454,5.84376 c -2.08857,2.04808 -4.2137,4.05505 -6.33984,6.0371 -0.11344,0.0978 -0.23773,0.18387 -0.35156,0.28125 0.11129,-0.0952 0.22697,-0.18565 0.33789,-0.28125 2.12844,-1.9842 4.26274,-3.98803 6.35351,-6.0371 z m -137.64062,1.42187 c 2.15717,3.50915 4.32392,7.01427 6.29101,10.63477 -1.96652,-3.61901 -4.12998,-7.12725 -6.29101,-10.63477 z m 124.71875,9.86719 c -0.1885,0.1396 -0.37501,0.27961 -0.56445,0.41797 0.1891,-0.1382 0.37628,-0.27853 0.56445,-0.41797 z m -117.38672,2.82226 c 0.44628,0.93776 0.89771,1.87535 1.33789,2.82422 -0.4383,-0.95025 -0.89224,-1.88507 -1.33789,-2.82422 z m 109.85156,2.25782 c -0.0641,0.0388 -0.12722,0.0785 -0.1914,0.11718 0.0641,-0.0386 0.12741,-0.0784 0.1914,-0.11718 z m -7.74804,4.16992 c -0.0781,0.0368 -0.15616,0.0728 -0.23438,0.10937 0.0781,-0.0365 0.15637,-0.0726 0.23438,-0.10937 z m -8.19336,3.28711 c -0.0367,0.0122 -0.0707,0.0308 -0.10743,0.043 -0.11323,0.0385 -0.22853,0.071 -0.34179,0.10937 0.11558,-0.0392 0.2321,-0.076 0.34765,-0.11523 0.0343,-0.0113 0.0673,-0.0257 0.10157,-0.0371 z m -21.05664,6.69726 c -0.3756,0.11084 -0.75109,0.22017 -1.12696,0.33008 0.37578,-0.10984 0.75145,-0.21932 1.12696,-0.33008 z m -21.9336,5.86719 c -0.1848,0.0441 -0.36591,0.10266 -0.55078,0.14648 -1.87906,0.4277 -3.8011,0.84056 -5.73828,1.18555 1.93798,-0.3451 3.85972,-0.76578 5.73828,-1.19336 0.18422,-0.0437 0.36663,-0.0947 0.55078,-0.13867 z m -17.13867,1.89648 c 0.0533,0.007 0.10685,0.009 0.16016,0.0156 -0.0534,-0.006 -0.10679,-0.009 -0.16016,-0.0156 z m 5.88086,0.0859 c -0.15485,0.0117 -0.30808,0.0254 -0.46289,0.0352 0.1544,-0.01 0.30846,-0.0234 0.46289,-0.0352 z"
     transform="scale(0.75)"
     sodipodi:nodetypes="scccccccccccccccscccscccsccccccccccccccccccccccccccccccccccccccccccccccccccccccccccccccccccccccccccccccccccccccccccccccccccccccccccccccccccccccccccccccccccccccccc" />
  <path
     fill="#000000"
     d="m 291.94,34.8 c 19.61,-2.36 39.51,-2.36 59.11,0 0.73,0.03 2.19,0.1 2.92,0.13 6.07,0.98 12.2,1.65 18.22,2.93 0.44,0.03 1.34,0.08 1.79,0.1 16.35,3.5 32.57,7.78 48.15,13.93 28.24,10.83 54.53,26.5 77.87,45.7 v 4.94 C 466.73,75.94 427.43,56.61 385.6,48.1 336.36,37.41 284.08,40.67 236.64,57.72 197.91,71.54 162.42,94.28 133.57,123.57 96.960524,170.62489 92.191537,166.39136 64.62,243.63 48.67,303.1 52.91,368.19 78.15,424.5 c 11.9,27.75 28.8,53.31 49.24,75.5 H 114.61 C 98.49,481.71 84.2,461.71 73.16,439.93 c -16.03,-31 -26.03,-65.09 -29.43,-99.81 -2.60219,-29.5294 -1.314002,-55.92241 4.14,-83.22 9.68,-48.55 32.78,-94.32 65.92,-131.07 21.34,-23.78 46.79,-43.89 74.9,-59.08 31,-16.94 65.32,-27.46 100.34,-31.82 0.73,-0.03 2.18,-0.1 2.91,-0.13 z"
     id="path6"
     sodipodi:nodetypes="cccccccccccccccccccccc" />
  <path
     fill="#a8a8a8"
     d=" M 289.03 34.93 C 289.30 33.32 291.52 33.21 291.94 34.80 C 291.21 34.83 289.76 34.90 289.03 34.93 Z"
     id="path8" />
  <path
     fill="#a8a8a8"
     d=" M 351.05 34.80 C 351.47 33.21 353.68 33.31 353.97 34.93 C 353.24 34.90 351.78 34.83 351.05 34.80 Z"
     id="path10" />
  <path
     fill="#b1b1b1"
     d=" M 372.19 37.86 C 372.67 36.38 373.27 36.41 373.98 37.96 C 373.53 37.94 372.63 37.89 372.19 37.86 Z"
     id="path12" />
</svg>
