<?xml version="1.0" encoding="UTF-8" standalone="no"?>
<svg
   width="500pt"
   height="500pt"
   viewBox="0 0 500 500"
   version="1.1"
   id="svg2"
   inkscape:version="1.1.1 (3bf5ae0d25, 2021-09-20)"
   sodipodi:docname="布丁繪圖頭像 沒有嘴巴.svg"
   inkscape:export-filename="D:\OUTTY_DOCUMENT\基本文件\2011~ 政大圖檔所博士班\布丁繪圖頭像 (背景).png"
   inkscape:export-xdpi="80.540001"
   inkscape:export-ydpi="80.540001"
   xmlns:inkscape="http://www.inkscape.org/namespaces/inkscape"
   xmlns:sodipodi="http://sodipodi.sourceforge.net/DTD/sodipodi-0.dtd"
   xmlns:xlink="http://www.w3.org/1999/xlink"
   xmlns="http://www.w3.org/2000/svg"
   xmlns:svg="http://www.w3.org/2000/svg"
   xmlns:rdf="http://www.w3.org/1999/02/22-rdf-syntax-ns#"
   xmlns:cc="http://creativecommons.org/ns#"
   xmlns:dc="http://purl.org/dc/elements/1.1/">
  <metadata
     id="metadata40">
    <rdf:RDF>
      <cc:Work
         rdf:about="">
        <dc:format>image/svg+xml</dc:format>
        <dc:type
           rdf:resource="http://purl.org/dc/dcmitype/StillImage" />
        <dc:title />
      </cc:Work>
    </rdf:RDF>
  </metadata>
  <defs
     id="defs38">
    <linearGradient
       id="linearGradient3019">
      <stop
         style="stop-color:#996931;stop-opacity:1;"
         offset="0"
         id="stop3021" />
      <stop
         style="stop-color:#ce8e42;stop-opacity:1;"
         offset="1"
         id="stop3023" />
    </linearGradient>
    <radialGradient
       inkscape:collect="always"
       xlink:href="#linearGradient3019"
       id="radialGradient3025"
       cx="566.47192"
       cy="570.33453"
       fx="566.47192"
       fy="570.33453"
       r="277.98605"
       gradientTransform="matrix(0.03418417,-1.3202331,1.5579033,0.04033817,-341.41847,1302.1165)"
       gradientUnits="userSpaceOnUse" />
  </defs>
  <sodipodi:namedview
     pagecolor="#ffffff"
     bordercolor="#666666"
     borderopacity="1"
     objecttolerance="10"
     gridtolerance="10"
     guidetolerance="10"
     inkscape:pageopacity="0"
     inkscape:pageshadow="2"
     inkscape:window-width="1920"
     inkscape:window-height="1007"
     id="namedview36"
     showgrid="false"
     inkscape:zoom="1.0680141"
     inkscape:cx="367.50451"
     inkscape:cy="401.21193"
     inkscape:window-x="1365"
     inkscape:window-y="0"
     inkscape:window-maximized="1"
     inkscape:current-layer="svg2"
     inkscape:pagecheckerboard="0"
     inkscape:document-units="pt" />
  <path
     fill="#000000"
     d=" M 291.94 34.80 C 311.55 32.44 331.45 32.44 351.05 34.80 C 351.78 34.83 353.24 34.90 353.97 34.93 C 360.04 35.91 366.17 36.58 372.19 37.86 C 372.63 37.89 373.53 37.94 373.98 37.96 C 390.33 41.46 406.55 45.74 422.13 51.89 C 450.37 62.72 476.66 78.39 500.00 97.59 L 500.00 102.53 C 466.73 75.94 427.43 56.61 385.60 48.10 C 336.36 37.41 284.08 40.67 236.64 57.72 C 197.91 71.54 162.42 94.28 133.57 123.57 C 115.37 141.87 100.17 163.04 87.72 185.62 C 81.33 198.16 74.83 210.82 71.07 224.44 C 78.67 218.67 85.48 211.90 92.99 206.00 C 100.24 200.27 107.41 194.44 114.43 188.43 C 116.90 186.51 119.13 184.16 122.08 182.96 C 125.72 183.83 128.91 185.95 132.01 187.98 C 134.54 189.82 137.60 191.45 138.50 194.69 C 134.15 197.11 129.42 198.72 124.99 200.98 C 110.14 208.30 96.32 217.47 82.44 226.44 C 77.69 230.08 72.46 233.07 67.82 236.88 C 65.72 238.48 65.31 241.25 64.62 243.63 C 48.67 303.10 52.91 368.19 78.15 424.50 C 90.05 452.25 106.95 477.81 127.39 500.00 L 114.61 500.00 C 98.49 481.71 84.20 461.71 73.16 439.93 C 57.13 408.93 47.13 374.84 43.73 340.12 C 41.71 322.50 42.11 304.73 43.23 287.07 C 44.18 285.13 44.38 282.97 43.92 280.87 C 44.02 279.63 44.11 278.40 44.21 277.16 C 45.24 275.95 45.44 274.34 44.91 272.87 C 46.02 267.57 46.77 262.20 47.87 256.90 C 57.55 208.35 80.65 162.58 113.79 125.83 C 135.13 102.05 160.58 81.94 188.69 66.75 C 219.69 49.81 254.01 39.29 289.03 34.93 C 289.76 34.90 291.21 34.83 291.94 34.80 Z"
     id="path6" />
  <path
     fill="#a8a8a8"
     d=" M 289.03 34.93 C 289.30 33.32 291.52 33.21 291.94 34.80 C 291.21 34.83 289.76 34.90 289.03 34.93 Z"
     id="path8" />
  <path
     fill="#a8a8a8"
     d=" M 351.05 34.80 C 351.47 33.21 353.68 33.31 353.97 34.93 C 353.24 34.90 351.78 34.83 351.05 34.80 Z"
     id="path10" />
  <path
     fill="#b1b1b1"
     d=" M 372.19 37.86 C 372.67 36.38 373.27 36.41 373.98 37.96 C 373.53 37.94 372.63 37.89 372.19 37.86 Z"
     id="path12" />
  <path
     d="m 411.6875,52.4375 c -39.38428,-0.195312 -78.8125,6.398438 -115.875,19.71875 -48.4125,17.275 -92.78125,45.7 -128.84375,82.3125 -22.75,22.875 -41.75,49.3375 -57.3125,77.5625 -7.9875,15.675 -16.1125,31.50625 -20.8125,48.53125 9.5,-7.2125 18.01875,-15.6875 27.40625,-23.0625 9.0625,-7.1625 18.00625,-14.45625 26.78125,-21.96875 3.0875,-2.4 5.875,-5.34375 9.5625,-6.84375 4.55,1.0875 8.53125,3.74375 12.40625,6.28125 3.1625,2.3 7,4.35625 8.125,8.40625 -5.4375,3.025 -11.3375,5.01875 -16.875,7.84375 -18.5625,9.15 -35.8375,20.63125 -53.1875,31.84375 -5.9375,4.55 -12.48125,8.26875 -18.28125,13.03125 -2.625,2 -3.1375,5.4625 -4,8.4375 C 60.84375,378.86875 66.1375,460.2375 97.6875,530.625 112.5625,565.3125 133.7,597.2625 159.25,625 h 43.78125 68.25 178.75 H 625 V 494.875 343.25 243.71875 128.15625 C 583.4125,94.91875 534.2875,70.7625 482,60.125 458.91875,55.114062 435.31807,52.554688 411.6875,52.4375 Z m -21.96875,198.90625 c 2.40945,0.0469 4.61484,2.39375 5.84375,4.34375 5,7.9375 9.38125,16.23125 14.09375,24.34375 9.2,16.225 19.15,32.00625 28.25,48.28125 7.3875,13.4375 14.9875,26.7625 22.0625,40.375 3.6375,7.9 8.83125,15.0125 12.03125,23.125 0.6875,2.225 1.3,5.4625 -1.1875,6.8125 -2.65,0.625 -5.65,0.2625 -7.4375,-2 -6.375,-6.4625 -10.4,-14.75625 -15.75,-22.03125 -13.4125,-18.85 -27.1875,-37.46875 -41.8125,-55.40625 -6.0375,-6.8875 -11.375,-14.3875 -18,-20.75 -2.3875,-2.3375 -4.5,-4.9375 -6.5625,-7.5625 -5.7125,-6.35 -13.3125,-10.775 -18.375,-17.75 -1.7125,-2.85 1.0625,-5.45 3,-7.25 6.575,-5.825 13.96875,-10.88125 22.15625,-14.15625 0.57187,-0.26719 1.13147,-0.38582 1.6875,-0.375 z"
     transform="scale(0.8)"
     id="path14"
     style="fill:url(#radialGradient3025);fill-opacity:1"
     sodipodi:nodetypes="sccccccccccccccccccccccccssccccccccccccccs" />
  <path
     fill="#000000"
     d=" M 310.43 201.37 C 312.87 200.23 315.23 202.63 316.44 204.55 C 320.44 210.90 323.95 217.54 327.72 224.03 C 335.08 237.01 343.05 249.64 350.33 262.66 C 356.24 273.41 362.32 284.07 367.98 294.96 C 370.89 301.28 375.05 306.96 377.61 313.45 C 378.16 315.23 378.65 317.81 376.66 318.89 C 374.54 319.39 372.12 319.12 370.69 317.31 C 365.59 312.14 362.38 305.49 358.10 299.67 C 347.37 284.59 336.35 269.70 324.65 255.35 C 319.82 249.84 315.55 243.83 310.25 238.74 C 308.34 236.87 306.65 234.81 305.00 232.71 C 300.43 227.63 294.34 224.08 290.29 218.50 C 288.92 216.22 291.16 214.13 292.71 212.69 C 297.97 208.03 303.88 203.99 310.43 201.37 Z"
     id="path18" />
  <path
     fill="#949494"
     d=" M 44.21 277.16 C 43.38 275.72 43.61 273.94 44.91 272.87 C 45.44 274.34 45.24 275.95 44.21 277.16 Z"
     id="path22" />
  <path
     fill="#888888"
     d=" M 43.23 287.07 C 42.32 285.00 42.33 282.60 43.92 280.87 C 44.38 282.97 44.18 285.13 43.23 287.07 Z"
     id="path26" />
</svg>
