<?xml version="1.0" encoding="UTF-8" standalone="no"?>
<svg
   width="500pt"
   height="500pt"
   viewBox="0 0 500 500"
   version="1.1"
   id="svg2"
   inkscape:version="1.1.1 (3bf5ae0d25, 2021-09-20)"
   sodipodi:docname="布丁繪圖頭像 有料.svg"
   inkscape:export-filename="D:\OUTTY_DOCUMENT\基本文件\2011~ 政大圖檔所博士班\布丁繪圖頭像 (背景).png"
   inkscape:export-xdpi="80.540001"
   inkscape:export-ydpi="80.540001"
   xmlns:inkscape="http://www.inkscape.org/namespaces/inkscape"
   xmlns:sodipodi="http://sodipodi.sourceforge.net/DTD/sodipodi-0.dtd"
   xmlns:xlink="http://www.w3.org/1999/xlink"
   xmlns="http://www.w3.org/2000/svg"
   xmlns:svg="http://www.w3.org/2000/svg"
   xmlns:rdf="http://www.w3.org/1999/02/22-rdf-syntax-ns#"
   xmlns:cc="http://creativecommons.org/ns#"
   xmlns:dc="http://purl.org/dc/elements/1.1/">
  <metadata
     id="metadata40">
    <rdf:RDF>
      <cc:Work
         rdf:about="">
        <dc:format>image/svg+xml</dc:format>
        <dc:type
           rdf:resource="http://purl.org/dc/dcmitype/StillImage" />
      </cc:Work>
    </rdf:RDF>
  </metadata>
  <defs
     id="defs38">
    <linearGradient
       id="linearGradient3019">
      <stop
         style="stop-color:#996931;stop-opacity:1;"
         offset="0"
         id="stop3021" />
      <stop
         style="stop-color:#ce8e42;stop-opacity:1;"
         offset="1"
         id="stop3023" />
    </linearGradient>
    <radialGradient
       inkscape:collect="always"
       xlink:href="#linearGradient3019"
       id="radialGradient989"
       cx="594.1701"
       cy="574.52112"
       fx="594.1701"
       fy="574.52112"
       r="296.51849"
       gradientTransform="matrix(-0.02108551,-1.5084732,1.4500556,-0.02026896,-374.93161,1343.5985)"
       gradientUnits="userSpaceOnUse" />
  </defs>
  <sodipodi:namedview
     pagecolor="#ffffff"
     bordercolor="#666666"
     borderopacity="1"
     objecttolerance="10"
     gridtolerance="10"
     guidetolerance="10"
     inkscape:pageopacity="0"
     inkscape:pageshadow="2"
     inkscape:window-width="1920"
     inkscape:window-height="1007"
     id="namedview36"
     showgrid="false"
     inkscape:zoom="0.75520001"
     inkscape:cx="505.16419"
     inkscape:cy="421.74258"
     inkscape:window-x="1365"
     inkscape:window-y="0"
     inkscape:window-maximized="1"
     inkscape:current-layer="svg2"
     inkscape:pagecheckerboard="0"
     inkscape:document-units="pt" />
  <path
     id="path105"
     style="fill:url(#radialGradient989);fill-opacity:1;stroke-width:0.999997"
     d="m 329.34961,41.950199 c -31.50742,-0.15625 -63.0497,5.118652 -92.69971,15.774902 -38.73,13.82 -74.22519,36.560582 -103.07519,65.850589 -18.2,18.3 -33.39961,39.46931 -45.849606,62.04931 -9.79692,18.7402 -11.07258,29.86969 -22.321348,49.56555 -26.764727,50.55072 -4.775043,148.71323 12.745663,189.30945 11.900003,27.75 28.810971,53.30952 49.250981,75.49952 h 35.02441 54.60059 142.9995 139.97462 V 395.9004 274.59961 194.9751 102.52442 c -33.27,-26.59 -72.5699,-45.914807 -114.39991,-54.424808 -18.465,-4.008749 -37.34554,-6.055663 -56.25,-6.149413 z M 311.77442,201.07471 c 0.002,5e-5 0.005,0.002 0.007,0.002 -0.007,-1.2e-4 -0.0137,0.001 -0.0205,0.001 0.004,6e-5 0.009,-0.003 0.0132,-0.003 z m 4.62451,3.41455 c 0.0131,0.0203 0.0386,0.0398 0.0513,0.0601 0.13251,0.21036 0.24794,0.43064 0.37939,0.64161 -0.13234,-0.2124 -0.25624,-0.42984 -0.38965,-0.64161 -0.0124,-0.0196 -0.0284,-0.0404 -0.041,-0.0601 z m 5.43164,9.16553 c 1.96216,3.4568 3.89664,6.93028 5.89453,10.36963 3.76617,6.64195 7.68537,13.19395 11.59424,19.75048 -3.91032,-6.55594 -7.83354,-13.10456 -11.59863,-19.74462 -1.99765,-3.43893 -3.92691,-6.9178 -5.89014,-10.37549 z m -11.7876,24.87305 c 0.0701,0.0697 0.13582,0.14316 0.20655,0.2124 2.73653,2.6281 5.19778,5.5026 7.604,8.42578 -2.40556,-2.91974 -4.86825,-5.78817 -7.604,-8.41553 -0.0724,-0.0709 -0.13477,-0.15119 -0.20655,-0.22265 z m 14.60743,16.82226 c 11.7,14.35 22.7197,29.24031 33.4497,44.32032 2.06595,2.8093 3.88296,5.81029 5.7832,8.74658 -1.90216,-2.93201 -3.71773,-5.93354 -5.7832,-8.74219 -10.73,-15.08 -21.7497,-29.97471 -33.4497,-44.32471 z m 52.00781,63.54053 c -0.004,0.002 -0.005,0.007 -0.009,0.009 -0.0426,0.01 -0.0876,0.008 -0.13037,0.0175 0.046,-0.01 0.0933,-0.0156 0.13916,-0.0264 z m -269.27783,8.08447 c -0.83002,0.7279 -1.97724,1.33045 -2.90479,2.06982 0.92914,-0.73817 2.07349,-1.33922 2.90479,-2.06982 z m 0.12744,0.0996 c 0.94843,2.30862 1.38849,5.43251 4.14258,6.27539 2.99049,1.22853 6.13893,1.84971 9.32226,2.32178 -3.18818,-0.46811 -6.34274,-1.08329 -9.33252,-2.31152 -2.75141,-0.84207 -3.18618,-3.97706 -4.13232,-6.28565 z m -4.19385,3.23584 c -0.004,0.007 -0.0118,0.0131 -0.0161,0.0206 0.005,-0.007 0.0118,-0.0131 0.0161,-0.0206 z m 1.89404,6.4336 c 0.54778,0.57433 1.11235,1.14467 1.60693,1.75341 -0.49424,-0.60835 -1.06026,-1.17846 -1.60693,-1.75341 z m 25.90576,0.33691 c 12.81936,1.66334 25.62111,3.52568 38.45948,5.0332 -12.83958,-1.50775 -25.63912,-3.36986 -38.45948,-5.0332 z m -24.22119,1.51172 c 0.53254,0.67092 0.97074,1.39225 1.18946,2.22363 -0.22082,-0.82923 -0.65629,-1.55206 -1.18946,-2.22363 z m 64.20703,3.7207 c 12.8471,1.83962 25.74029,3.45838 38.625,5.01123 3.8963,0.53605 7.80521,1.06829 11.72608,1.44287 -3.92246,-0.37092 -7.83267,-0.90075 -11.73047,-1.43701 -12.8863,-1.55304 -25.77229,-3.17684 -38.62061,-5.01709 z m 50.53272,6.47168 c 1.77028,0.16686 3.54353,0.29053 5.31884,0.37647 -1.77543,-0.0845 -3.54842,-0.21132 -5.31884,-0.37647 z m 6.25049,0.41601 c 1.6808,0.0651 3.36399,0.0814 5.04931,0.0439 -1.68535,0.0377 -3.36846,0.0199 -5.04931,-0.0439 z m 22.67139,2.07276 c 0.0311,0.0106 0.0641,0.0157 0.0952,0.0264 0.0397,0.069 0.0692,0.14712 0.1084,0.21679 -0.0401,-0.0712 -0.0766,-0.14622 -0.11719,-0.21679 -0.0284,-0.01 -0.058,-0.0166 -0.0864,-0.0264 z m 1.20263,2.25147 c 0.046,0.10656 0.0908,0.21038 0.13477,0.31787 -0.0438,-0.10673 -0.089,-0.21206 -0.13477,-0.31787 z m 0.91113,2.69091 c 0.009,0.0398 0.0188,0.0788 0.0278,0.11865 -0.009,-0.0397 -0.0184,-0.079 -0.0278,-0.11865 z m 0.34131,2.71143 c 4e-5,0.0113 -10e-4,0.0224 -10e-4,0.0337 -1e-5,-0.0113 10e-4,-0.0224 10e-4,-0.0337 z m -0.35449,2.64258 c -0.003,0.01 -0.001,0.0196 -0.004,0.0293 -0.01,0.036 -0.0255,0.0695 -0.0352,0.10547 0.0105,-0.039 0.0248,-0.0767 0.0352,-0.11572 0.001,-0.006 0.002,-0.0127 0.004,-0.019 z m -1.44287,4.43262 c -0.0383,0.10046 -0.0784,0.20007 -0.11719,0.30029 0.0388,-0.10021 0.0789,-0.19985 0.11719,-0.30029 z m -1.82666,4.28466 c -0.0764,0.16356 -0.15693,0.32469 -0.23438,0.4878 0.0774,-0.163 0.15806,-0.32435 0.23438,-0.4878 z m -4.25391,8.31006 c -0.062,0.11664 -0.11967,0.2364 -0.18164,0.35303 -0.0201,0.0368 -0.0472,0.0687 -0.0674,0.10546 0.0181,-0.0329 0.0391,-0.0637 0.0572,-0.0967 0.0639,-0.12026 0.12789,-0.24152 0.1919,-0.36182 z m -3.48779,5.4917 c -0.0523,0.0709 -0.10414,0.14179 -0.15674,0.2124 0.0526,-0.0706 0.10453,-0.14158 0.15674,-0.2124 z m -116.70264,0.83935 c 0.0139,0.0266 0.0256,0.054 0.0395,0.0806 -0.002,-0.003 -0.005,-0.006 -0.006,-0.009 -0.0123,-0.0235 -0.0215,-0.0483 -0.0337,-0.0718 z m 112.79737,3.91113 c -0.1094,0.12117 -0.21941,0.24131 -0.3296,0.36183 0.11017,-0.12043 0.22022,-0.24075 0.3296,-0.36183 z m -4.23341,4.38282 c -1.56642,1.53606 -3.16027,3.04129 -4.75488,4.52783 -0.0851,0.0734 -0.17829,0.1379 -0.26367,0.21094 0.0835,-0.0714 0.17023,-0.13924 0.25342,-0.21094 1.59633,-1.48815 3.19706,-2.99102 4.76513,-4.52783 z m -103.23046,1.06641 c 1.61788,2.63186 3.24294,5.2607 4.71826,7.97607 -1.47489,-2.71425 -3.09749,-5.34543 -4.71826,-7.97607 z m 93.53906,7.40039 c -0.14137,0.1047 -0.28126,0.20971 -0.42334,0.31348 0.14183,-0.10365 0.28221,-0.2089 0.42334,-0.31348 z m -88.04004,2.11669 c 0.33471,0.70332 0.67328,1.40652 1.00342,2.11817 -0.32873,-0.71269 -0.66918,-1.4138 -1.00342,-2.11817 z m 82.38867,1.69337 c -0.0481,0.0291 -0.0954,0.0589 -0.14355,0.0879 0.0481,-0.029 0.0956,-0.0588 0.14355,-0.0879 z m -5.81103,3.12744 c -0.0586,0.0276 -0.11712,0.0546 -0.17578,0.082 0.0586,-0.0274 0.11727,-0.0544 0.17578,-0.082 z m -6.14502,2.46533 c -0.0275,0.009 -0.053,0.0231 -0.0806,0.0322 -0.0849,0.0289 -0.1714,0.0533 -0.25634,0.082 0.0867,-0.0294 0.17407,-0.057 0.26073,-0.0864 0.0257,-0.008 0.0505,-0.0193 0.0762,-0.0278 z m -15.79248,5.02295 c -0.2817,0.0831 -0.56332,0.16512 -0.84522,0.24756 0.28184,-0.0824 0.56359,-0.16449 0.84522,-0.24756 z m -16.4502,4.40039 c -0.1386,0.0331 -0.27443,0.077 -0.41308,0.10986 -1.4093,0.32077 -2.85083,0.63042 -4.30371,0.88916 1.45348,-0.25882 2.89479,-0.57433 4.30371,-0.89502 0.13816,-0.0328 0.27497,-0.071 0.41308,-0.104 z m -12.854,1.42236 c 0.04,0.005 0.0801,0.007 0.12012,0.0117 -0.0401,-0.005 -0.0801,-0.007 -0.12012,-0.0117 z m 4.41064,0.0644 c -0.11613,0.009 -0.23106,0.019 -0.34716,0.0264 0.1158,-0.007 0.23134,-0.0175 0.34716,-0.0264 z"
     sodipodi:nodetypes="scccccccccccccccscccscccsccccccccccccccccccccccccccccccccccccccccccccccccccccccccccccccccccccccccccccccccccccccccccccccccccccccccccccccccccccccccccccccccccccccccc" />
  <path
     fill="#000000"
     d="m 291.94,34.800003 c 19.61,-2.36 39.51,-2.36 59.11,0 0.73,0.03 2.19,0.1 2.92,0.13 6.07,0.98 12.2,1.65 18.22,2.93 0.44,0.03 1.34,0.08 1.79,0.1 16.35,3.5 32.57,7.78 48.15,13.93 28.24,10.83 54.53,26.5 77.87,45.7 V 102.53 C 466.73,75.940003 427.43,56.610003 385.6,48.100003 c -49.24,-10.69 -101.52,-7.43 -148.96,9.62 -38.73,13.82 -74.22,36.56 -103.07,65.849997 -36.609472,47.05489 -41.378459,42.82136 -68.949996,120.06 -15.95,59.47 -11.71,124.56 13.53,180.87 11.9,27.75 28.799996,53.31 49.239996,75.5 H 114.61 C 98.490004,481.71 84.200004,461.71 73.160004,439.93 c -16.03,-31 -26.03,-65.09 -29.43,-99.81 -2.60219,-29.5294 -1.314002,-55.92241 4.14,-83.22 9.68,-48.55 32.78,-94.32 65.919996,-131.07 21.34,-23.78 46.79,-43.889997 74.9,-59.079997 31,-16.94 65.32,-27.46 100.34,-31.82 0.73,-0.03 2.18,-0.1 2.91,-0.13 z"
     id="path6"
     sodipodi:nodetypes="cccccccccccccccccccccc" />
  <path
     id="path28"
     style="stroke-width:0.999997"
     d="m 133.61426,343.39159 c -0.82462,0.74562 -1.99185,1.35 -2.93702,2.09327 -0.0119,0.009 -0.0262,0.017 -0.0381,0.0264 -0.001,8.5e-4 -0.002,0.002 -0.003,0.003 -0.47512,0.3791 -0.88995,0.79472 -1.17334,1.28321 -0.002,0.004 -0.002,0.008 -0.004,0.0117 -0.27754,0.48284 -0.42267,1.03847 -0.3706,1.69776 2.5e-4,0.003 -2.6e-4,0.006 0,0.009 -0.002,0.0238 0.001,0.0453 0,0.0688 -0.0274,0.41991 0.009,0.81143 0.0893,1.18212 0.0149,0.0683 0.0317,0.1353 0.0498,0.20215 0.0882,0.32706 0.21501,0.6371 0.36914,0.93458 0.0395,0.0762 0.0858,0.1495 0.12891,0.22411 0.38288,0.66287 0.89154,1.2697 1.4458,1.86035 1.23739,1.32264 2.6444,2.588 3.09228,4.32862 0.0399,0.14278 0.0859,0.28356 0.12598,0.42627 1.34406,4.77998 2.81845,9.52013 4.43262,14.21192 0.064,0.18602 0.1275,0.37222 0.19189,0.5581 1.65606,4.77761 3.45141,9.50627 5.39502,14.17822 0.0277,0.0666 0.0528,0.13412 0.0806,0.20068 1.10027,2.46804 2.15227,4.94948 3.24316,7.41211 1.07336,2.42123 2.18288,4.82339 3.41162,7.17188 1.46941,2.97774 3.1834,5.81982 4.91895,8.6499 1.83388,2.98404 3.6991,5.95256 5.35107,9.04101 0.72787,1.3112 1.26943,2.76984 1.95997,4.125 0.30676,0.59928 0.63996,1.17903 1.03417,1.71534 0.02,0.0272 0.0412,0.0536 0.0615,0.0806 0.41643,0.5535 0.89992,1.05836 1.47804,1.49268 0.0149,0.0112 0.0259,0.0255 0.041,0.0366 0.0846,0.0644 0.17166,0.12751 0.25635,0.1919 2.5897,1.96894 5.20891,3.94467 7.94091,5.73779 0.0632,0.0415 0.12713,0.0817 0.19044,0.12305 1.37388,0.89577 2.7744,1.74833 4.21435,2.52685 0.0177,0.01 0.0351,0.0197 0.0527,0.0293 0.004,0.002 0.009,0.005 0.0132,0.007 1.48795,0.80158 3.01529,1.52875 4.59521,2.15332 4.2e-4,1.7e-4 10e-4,-1.6e-4 10e-4,0 5.29001,2.13 11.10045,0.91971 16.46046,-0.30029 11.01,-2.61 21.86958,-5.85951 32.57958,-9.49951 8.39001,-2.77 15.94987,-7.62963 22.60987,-13.36963 6.05,-5.64 12.18971,-11.45102 16.19971,-18.79101 2.97,-5.59001 6.07093,-11.21013 7.71094,-17.37012 1.00999,-3.52 -0.24977,-7.22907 -2.00977,-10.28907 -1.3725,-0.4725 -2.77448,-0.87345 -4.19385,-1.1997 -1.38026,-0.31726 -2.77796,-0.55813 -4.18506,-0.73242 -0.0874,-0.0107 -0.17474,-0.0206 -0.2622,-0.0308 -1.31437,-0.15424 -2.63719,-0.23809 -3.95948,-0.26367 -0.17832,-0.003 -0.35634,-0.005 -0.53466,-0.006 -1.25472,-0.007 -2.50801,0.0461 -3.75586,0.15821 -0.10817,0.01 -0.21713,0.0128 -0.3252,0.0234 -7.7624,0.22457 -15.476,-0.79653 -23.14307,-1.8501 -0.18648,-0.0256 -0.37461,-0.0432 -0.56103,-0.0688 -0.34899,-0.0421 -0.6969,-0.0941 -1.0459,-0.13623 -12.76036,-1.54105 -25.52906,-3.13896 -38.25,-4.96875 -13.78,-1.6 -27.5149,-3.64088 -41.2749,-5.40088 -0.52081,-0.0871 -1.04935,-0.14859 -1.57325,-0.22559 -2.46965,-0.3616 -4.95863,-0.65985 -7.43115,-1.04736 -1.30692,-0.20683 -2.605,-0.45357 -3.88769,-0.75732 -0.1972,-0.0464 -0.39397,-0.094 -0.59033,-0.14356 -1.25159,-0.31754 -2.48443,-0.70532 -3.69434,-1.18359 -0.10887,-0.043 -0.22407,-0.0624 -0.33252,-0.10694 -0.0248,-0.008 -0.0357,-0.0287 -0.0601,-0.0366 -0.64022,-0.20856 -1.15095,-0.54564 -1.57324,-0.96533 -0.0463,-0.0463 -0.0906,-0.0938 -0.13477,-0.14209 -0.39562,-0.43 -0.71276,-0.93287 -0.97705,-1.47949 -0.0252,-0.0525 -0.0474,-0.10354 -0.0718,-0.15674 -0.54665,-1.18438 -0.8915,-2.52745 -1.37256,-3.65479 z m 8.34961,12.49952 c 5.72625,-0.11156 11.46269,1.22461 17.20019,1.59961 31.14,3.77 62.26412,7.62529 93.22412,12.67529 6.08,0.75 12.13981,1.87097 18.04981,3.50098 -1.46,6.06999 -5.38942,11.10921 -9.14942,15.94921 -4.77999,5.57 -10.44,10.35068 -16.5,14.45069 -9.57999,4.58 -19.97558,7.1398 -30.22558,9.7998 -13.75,3.7 -27.91961,5.77893 -42.09961,6.64893 -0.09,-4.02 -2.81029,-7.14981 -5.55029,-9.7998 -5.29001,-4.87001 -8.93922,-11.14932 -12.94922,-17.04933 -8.04,-11.22 -13.10461,-24.20009 -17.72461,-37.10009 1.9075,-0.45 3.81586,-0.63811 5.72461,-0.67529 z" />
  <path
     fill="#a8a8a8"
     d="m 289.03,34.930003 c 0.27,-1.61 2.49,-1.72 2.91,-0.13 -0.73,0.03 -2.18,0.1 -2.91,0.13 z"
     id="path8" />
  <path
     fill="#a8a8a8"
     d="m 351.05,34.800003 c 0.42,-1.59 2.63,-1.49 2.92,0.13 -0.73,-0.03 -2.19,-0.1 -2.92,-0.13 z"
     id="path10" />
  <path
     fill="#b1b1b1"
     d="m 372.19,37.860003 c 0.48,-1.48 1.08,-1.45 1.79,0.1 -0.45,-0.02 -1.35,-0.07 -1.79,-0.1 z"
     id="path12" />
  <g
     id="g1802"
     transform="matrix(0.8573205,0,0,1,54.100281,0)">
    <path
       fill="#000000"
       d="m 248.51628,230.93943 c -0.46964,-2.65192 0.0433,-3.02165 4.62714,-4.98217 7.16891,-2.22021 14.49111,-3.89205 21.73572,-5.85385 14.44262,-3.74974 28.70505,-8.17929 43.16561,-11.8414 11.91332,-2.92632 23.78371,-6.04014 35.76756,-8.68874 6.85781,-1.17511 13.42096,-3.72327 20.3524,-4.5163 1.86169,-0.0706 4.4806,0.12389 5.00875,2.3256 -0.0657,2.17718 -0.95287,4.44484 -3.07131,5.35765 -6.31381,3.58812 -13.56803,4.9676 -20.29746,7.59543 -17.34329,6.4614 -34.57811,13.25208 -51.46733,20.83936 -6.57235,3.23933 -13.48272,5.80833 -19.77102,9.61035 -2.30063,1.36093 -4.72784,2.46018 -7.18334,3.51043 -6.0897,3.09948 -11.09495,8.06316 -17.53303,10.53095 -2.55689,0.73321 -3.99592,-1.97139 -4.98569,-3.84128 -3.13982,-6.28686 -5.51254,-13.04111 -6.348,-20.04603 z"
       id="path18"
       sodipodi:nodetypes="ccccccccccccccc" />
    <path
       fill="#000000"
       d="m 248.55955,227.9178 c 2.51435,-1.39493 4.78693,-1.3088 6.79482,-0.25103 6.6391,3.49927 12.99892,7.49454 19.5088,11.23014 12.86392,7.56101 26.08115,14.51392 38.89581,22.14958 10.49322,6.35476 21.08865,12.54659 31.43535,19.14762 5.68011,4.0183 12.1228,6.85729 17.58482,11.19782 1.36637,1.26646 3.08067,3.25584 1.89729,5.18617 -1.58596,1.49304 -3.81677,2.46918 -5.96018,1.61668 -7.00172,-1.92736 -13.10668,-6.08143 -19.72326,-8.9817 -16.83245,-7.69464 -33.82105,-15.07979 -51.12855,-21.65724 -6.9379,-2.35679 -13.64081,-5.4266 -20.77575,-7.18468 -2.58912,-0.66446 -5.08269,-1.60353 -7.56163,-2.59715 -6.49775,-2.11439 -6.7442,-2.89923 -13.04156,-5.70686 -2.32645,-1.28954 -6.43125,-13.38706 -5.80892,-15.40915 2.22532,-6.66565 3.81504,-6.9088 7.88297,-8.74022 1e-5,0 -1e-5,2e-5 -1e-5,2e-5 z"
       id="path18-3"
       sodipodi:nodetypes="scccccccccccccss" />
  </g>
  <g
     id="g1798"
     transform="matrix(0.7377859,0,0,1.0471106,9.8500582,-21.383526)">
    <path
       fill="#000000"
       d="m 165.23628,237.49824 c 0.73156,-1.72982 -0.33992,-3.19696 -1.2395,-3.90864 -2.97525,-2.35251 -6.12843,-4.35403 -9.18917,-6.54156 -6.13272,-4.25239 -12.04955,-8.94104 -18.20759,-13.13657 -5.09071,-3.3954 -10.12506,-6.91192 -15.30252,-10.1287 -3.02814,-1.61146 -5.65308,-4.11239 -8.78946,-5.47533 -0.86971,-0.27018 -2.14952,-0.45237 -2.82246,0.96725 -0.38647,1.47413 -0.40061,3.10739 0.42934,3.97547 2.30715,3.17148 5.48416,4.96799 8.17271,7.54245 6.98871,6.42548 13.86277,13.05972 20.42006,20.18913 2.49673,2.96751 5.2824,5.524 7.53641,8.83649 0.83043,1.19165 1.7711,2.22221 2.73459,3.22314 2.29456,2.81562 3.717,6.75701 6.29803,9.18886 1.07241,0.79955 2.27399,-0.84982 3.10228,-1.99077 2.69569,-3.85852 5.11711,-8.12356 6.85728,-12.74122 z"
       id="path42"
       style="stroke-width:0.585197" />
    <path
       fill="#000000"
       d="m 159.08112,230.82109 c -1.54264,-1.95279 -3.91476,-1.76656 -5.30423,-1.26264 -4.59403,1.6676 -8.89362,3.76357 -13.35041,5.63458 -8.77863,3.83615 -17.9266,7.14565 -26.65533,11.04742 -7.13138,3.27428 -14.367365,6.40662 -21.346707,9.8943 -3.769412,2.22049 -8.315015,3.40742 -11.864751,5.91192 -0.859872,0.76619 -1.87512,2.03846 -0.654796,3.72008 1.463568,1.40616 3.345469,2.5132 4.872214,2.1896 5.122101,-0.39267 9.199311,-2.65162 13.870036,-3.85869 11.832544,-3.31588 23.834664,-6.36743 36.210894,-8.74298 5.00514,-0.73543 9.71616,-2.06013 14.96804,-2.30084 1.90167,-0.10768 2.52022,0.11895 7.22823,-0.55184 6.02848,-0.85891 9.97571,-4.92919 12.02302,-9.64051 0.62734,-1.44366 0.64798,-3.49508 -0.35417,-4.70892 -6.18674,-7.49363 -5.39039,-2.35004 -9.64204,-7.33145 z"
       id="path42-5"
       style="stroke-width:0.758706"
       sodipodi:nodetypes="sccccccccccsasss" />
  </g>
</svg>
