<?xml version="1.0" encoding="UTF-8" standalone="no"?>
<svg
   xmlns:dc="http://purl.org/dc/elements/1.1/"
   xmlns:cc="http://creativecommons.org/ns#"
   xmlns:rdf="http://www.w3.org/1999/02/22-rdf-syntax-ns#"
   xmlns:svg="http://www.w3.org/2000/svg"
   xmlns="http://www.w3.org/2000/svg"
   xmlns:xlink="http://www.w3.org/1999/xlink"
   xmlns:sodipodi="http://sodipodi.sourceforge.net/DTD/sodipodi-0.dtd"
   xmlns:inkscape="http://www.inkscape.org/namespaces/inkscape"
   width="500pt"
   height="500pt"
   viewBox="0 0 500 500"
   version="1.1"
   id="svg2"
   inkscape:version="0.48.5 r10040"
   sodipodi:docname="布丁繪圖頭像 (背景).svg"
   inkscape:export-filename="D:\OUTTY_DOCUMENT\基本文件\2011~ 政大圖檔所博士班\布丁繪圖頭像 (背景).png"
   inkscape:export-xdpi="80.540001"
   inkscape:export-ydpi="80.540001">
  <metadata
     id="metadata40">
    <rdf:RDF>
      <cc:Work
         rdf:about="">
        <dc:format>image/svg+xml</dc:format>
        <dc:type
           rdf:resource="http://purl.org/dc/dcmitype/StillImage" />
        <dc:title></dc:title>
      </cc:Work>
    </rdf:RDF>
  </metadata>
  <defs
     id="defs38">
    <linearGradient
       id="linearGradient3019">
      <stop
         style="stop-color:#996931;stop-opacity:1;"
         offset="0"
         id="stop3021" />
      <stop
         style="stop-color:#ce8e42;stop-opacity:1;"
         offset="1"
         id="stop3023" />
    </linearGradient>
    <radialGradient
       inkscape:collect="always"
       xlink:href="#linearGradient3019"
       id="radialGradient3025"
       cx="566.47192"
       cy="570.33453"
       fx="566.47192"
       fy="570.33453"
       r="277.98605"
       gradientTransform="matrix(0.03418417,-1.3202331,1.5579033,0.04033817,-341.41847,1302.1165)"
       gradientUnits="userSpaceOnUse" />
  </defs>
  <sodipodi:namedview
     pagecolor="#ffffff"
     bordercolor="#666666"
     borderopacity="1"
     objecttolerance="10"
     gridtolerance="10"
     guidetolerance="10"
     inkscape:pageopacity="0"
     inkscape:pageshadow="2"
     inkscape:window-width="1920"
     inkscape:window-height="1058"
     id="namedview36"
     showgrid="false"
     inkscape:zoom="1.0680141"
     inkscape:cx="367.34352"
     inkscape:cy="251.78513"
     inkscape:window-x="1602"
     inkscape:window-y="892"
     inkscape:window-maximized="1"
     inkscape:current-layer="svg2" />
  <path
     d=" M 102.92 332.06 C 102.69 329.37 105.78 328.43 107.45 326.92 C 108.44 329.24 108.83 332.50 111.64 333.36 C 117.19 335.64 123.30 335.84 129.16 336.82 C 142.92 338.58 156.65 340.62 170.43 342.22 C 183.50 344.10 196.61 345.75 209.72 347.33 C 217.57 348.41 225.47 349.47 233.42 349.24 C 239.21 348.67 245.15 349.41 250.64 351.30 C 252.40 354.36 253.66 358.07 252.65 361.59 C 251.01 367.75 247.91 373.37 244.94 378.96 C 240.93 386.30 234.79 392.11 228.74 397.75 C 222.08 403.49 214.52 408.35 206.13 411.12 C 195.42 414.76 184.56 418.01 173.55 420.62 C 168.19 421.84 162.38 423.05 157.09 420.92 C 150.74 418.41 145.22 414.26 139.83 410.16 C 137.37 408.35 136.65 405.25 135.24 402.71 C 132.02 396.69 128.00 391.13 124.98 385.01 C 122.50 380.27 120.50 375.31 118.32 370.42 C 114.30 360.78 110.90 350.90 108.09 340.84 C 107.21 337.42 102.62 335.86 102.92 332.06 Z"
     id="path28"
     fill="#000000" />
  <path
     fill="#000000"
     d=" M 291.94 34.80 C 311.55 32.44 331.45 32.44 351.05 34.80 C 351.78 34.83 353.24 34.90 353.97 34.93 C 360.04 35.91 366.17 36.58 372.19 37.86 C 372.63 37.89 373.53 37.94 373.98 37.96 C 390.33 41.46 406.55 45.74 422.13 51.89 C 450.37 62.72 476.66 78.39 500.00 97.59 L 500.00 102.53 C 466.73 75.94 427.43 56.61 385.60 48.10 C 336.36 37.41 284.08 40.67 236.64 57.72 C 197.91 71.54 162.42 94.28 133.57 123.57 C 115.37 141.87 100.17 163.04 87.72 185.62 C 81.33 198.16 74.83 210.82 71.07 224.44 C 78.67 218.67 85.48 211.90 92.99 206.00 C 100.24 200.27 107.41 194.44 114.43 188.43 C 116.90 186.51 119.13 184.16 122.08 182.96 C 125.72 183.83 128.91 185.95 132.01 187.98 C 134.54 189.82 137.60 191.45 138.50 194.69 C 134.15 197.11 129.42 198.72 124.99 200.98 C 110.14 208.30 96.32 217.47 82.44 226.44 C 77.69 230.08 72.46 233.07 67.82 236.88 C 65.72 238.48 65.31 241.25 64.62 243.63 C 48.67 303.10 52.91 368.19 78.15 424.50 C 90.05 452.25 106.95 477.81 127.39 500.00 L 114.61 500.00 C 98.49 481.71 84.20 461.71 73.16 439.93 C 57.13 408.93 47.13 374.84 43.73 340.12 C 41.71 322.50 42.11 304.73 43.23 287.07 C 44.18 285.13 44.38 282.97 43.92 280.87 C 44.02 279.63 44.11 278.40 44.21 277.16 C 45.24 275.95 45.44 274.34 44.91 272.87 C 46.02 267.57 46.77 262.20 47.87 256.90 C 57.55 208.35 80.65 162.58 113.79 125.83 C 135.13 102.05 160.58 81.94 188.69 66.75 C 219.69 49.81 254.01 39.29 289.03 34.93 C 289.76 34.90 291.21 34.83 291.94 34.80 Z"
     id="path6" />
  <path
     fill="#a8a8a8"
     d=" M 289.03 34.93 C 289.30 33.32 291.52 33.21 291.94 34.80 C 291.21 34.83 289.76 34.90 289.03 34.93 Z"
     id="path8" />
  <path
     fill="#a8a8a8"
     d=" M 351.05 34.80 C 351.47 33.21 353.68 33.31 353.97 34.93 C 353.24 34.90 351.78 34.83 351.05 34.80 Z"
     id="path10" />
  <path
     fill="#b1b1b1"
     d=" M 372.19 37.86 C 372.67 36.38 373.27 36.41 373.98 37.96 C 373.53 37.94 372.63 37.89 372.19 37.86 Z"
     id="path12" />
  <path
     d="M 411.6875 52.4375 C 372.30322 52.242188 332.875 58.835938 295.8125 72.15625 C 247.4 89.43125 203.03125 117.85625 166.96875 154.46875 C 144.21875 177.34375 125.21875 203.80625 109.65625 232.03125 C 101.66875 247.70625 93.54375 263.5375 88.84375 280.5625 C 98.34375 273.35 106.8625 264.875 116.25 257.5 C 125.3125 250.3375 134.25625 243.04375 143.03125 235.53125 C 146.11875 233.13125 148.90625 230.1875 152.59375 228.6875 C 157.14375 229.775 161.125 232.43125 165 234.96875 C 168.1625 237.26875 172 239.325 173.125 243.375 C 167.6875 246.4 161.7875 248.39375 156.25 251.21875 C 137.6875 260.36875 120.4125 271.85 103.0625 283.0625 C 97.125 287.6125 90.58125 291.33125 84.78125 296.09375 C 82.15625 298.09375 81.64375 301.55625 80.78125 304.53125 C 60.84375 378.86875 66.1375 460.2375 97.6875 530.625 C 112.5625 565.3125 133.7 597.2625 159.25 625 L 203.03125 625 L 271.28125 625 L 450.03125 625 L 625 625 L 625 494.875 L 625 343.25 L 625 243.71875 L 625 128.15625 C 583.4125 94.91875 534.2875 70.7625 482 60.125 C 458.91875 55.114062 435.31807 52.554688 411.6875 52.4375 z M 389.71875 251.34375 C 392.1282 251.39064 394.33359 253.7375 395.5625 255.6875 C 400.5625 263.625 404.94375 271.91875 409.65625 280.03125 C 418.85625 296.25625 428.80625 312.0375 437.90625 328.3125 C 445.29375 341.75 452.89375 355.075 459.96875 368.6875 C 463.60625 376.5875 468.8 383.7 472 391.8125 C 472.6875 394.0375 473.3 397.275 470.8125 398.625 C 468.1625 399.25 465.1625 398.8875 463.375 396.625 C 457 390.1625 452.975 381.86875 447.625 374.59375 C 434.2125 355.74375 420.4375 337.125 405.8125 319.1875 C 399.775 312.3 394.4375 304.8 387.8125 298.4375 C 385.425 296.1 383.3125 293.5 381.25 290.875 C 375.5375 284.525 367.9375 280.1 362.875 273.125 C 361.1625 270.275 363.9375 267.675 365.875 265.875 C 372.45 260.05 379.84375 254.99375 388.03125 251.71875 C 388.60312 251.45156 389.16272 251.33293 389.71875 251.34375 z M 134.3125 408.65625 C 135.55 411.55625 136.05 415.6125 139.5625 416.6875 C 146.5 419.5375 154.1125 419.80625 161.4375 421.03125 C 178.6375 423.23125 195.80625 425.78125 213.03125 427.78125 C 229.36875 430.13125 245.76875 432.18125 262.15625 434.15625 C 271.96875 435.50625 281.84375 436.85 291.78125 436.5625 C 299.01875 435.85 306.45 436.7625 313.3125 439.125 C 315.5125 442.95 317.075 447.6 315.8125 452 C 313.7625 459.7 309.9 466.7 306.1875 473.6875 C 301.175 482.8625 293.5 490.1375 285.9375 497.1875 C 277.6125 504.3625 268.14375 510.44375 257.65625 513.90625 C 244.26875 518.45625 230.7 522.51875 216.9375 525.78125 C 210.2375 527.30625 202.9875 528.81875 196.375 526.15625 C 188.4375 523.01875 181.51875 517.8125 174.78125 512.6875 C 171.70625 510.425 170.825 506.55 169.0625 503.375 C 165.0375 495.85 159.99375 488.9 156.21875 481.25 C 153.11875 475.325 150.63125 469.14375 147.90625 463.03125 C 142.88125 450.98125 138.6375 438.6375 135.125 426.0625 C 134.025 421.7875 128.28125 419.8125 128.65625 415.0625 C 128.36875 411.7 132.225 410.54375 134.3125 408.65625 z M 144.75 424.28125 C 142.36406 424.32773 139.97813 424.5625 137.59375 425.125 C 143.36875 441.25 149.7 457.475 159.75 471.5 C 164.7625 478.875 169.325 486.725 175.9375 492.8125 C 179.3625 496.125 182.7625 500.0375 182.875 505.0625 C 200.6 503.975 218.3125 501.375 235.5 496.75 C 248.3125 493.425 261.30625 490.225 273.28125 484.5 C 280.85625 479.375 287.93125 473.4 293.90625 466.4375 C 298.60625 460.3875 303.51875 454.0875 305.34375 446.5 C 297.95625 444.4625 290.38125 443.0625 282.78125 442.125 C 244.08125 435.8125 205.175 430.99375 166.25 426.28125 C 159.07812 425.8125 151.90781 424.1418 144.75 424.28125 z "
     transform="scale(0.8,0.8)"
     id="path14"
     style="fill:url(#radialGradient3025);fill-opacity:1" />
  <path
     fill="#000000"
     d=" M 310.43 201.37 C 312.87 200.23 315.23 202.63 316.44 204.55 C 320.44 210.90 323.95 217.54 327.72 224.03 C 335.08 237.01 343.05 249.64 350.33 262.66 C 356.24 273.41 362.32 284.07 367.98 294.96 C 370.89 301.28 375.05 306.96 377.61 313.45 C 378.16 315.23 378.65 317.81 376.66 318.89 C 374.54 319.39 372.12 319.12 370.69 317.31 C 365.59 312.14 362.38 305.49 358.10 299.67 C 347.37 284.59 336.35 269.70 324.65 255.35 C 319.82 249.84 315.55 243.83 310.25 238.74 C 308.34 236.87 306.65 234.81 305.00 232.71 C 300.43 227.63 294.34 224.08 290.29 218.50 C 288.92 216.22 291.16 214.13 292.71 212.69 C 297.97 208.03 303.88 203.99 310.43 201.37 Z"
     id="path18" />
  <path
     fill="#949494"
     d=" M 44.21 277.16 C 43.38 275.72 43.61 273.94 44.91 272.87 C 45.44 274.34 45.24 275.95 44.21 277.16 Z"
     id="path22" />
  <path
     fill="#888888"
     d=" M 43.23 287.07 C 42.32 285.00 42.33 282.60 43.92 280.87 C 44.38 282.97 44.18 285.13 43.23 287.07 Z"
     id="path26" />
</svg>
