<?xml version="1.0" encoding="UTF-8" standalone="no"?>
<svg
   width="500pt"
   height="500pt"
   viewBox="0 0 500 500"
   version="1.1"
   id="svg2"
   inkscape:version="1.1.1 (3bf5ae0d25, 2021-09-20)"
   sodipodi:docname="布丁繪圖頭像 亂講.svg"
   inkscape:export-filename="D:\OUTTY_DOCUMENT\基本文件\2011~ 政大圖檔所博士班\布丁繪圖頭像 (背景).png"
   inkscape:export-xdpi="80.540001"
   inkscape:export-ydpi="80.540001"
   xmlns:inkscape="http://www.inkscape.org/namespaces/inkscape"
   xmlns:sodipodi="http://sodipodi.sourceforge.net/DTD/sodipodi-0.dtd"
   xmlns:xlink="http://www.w3.org/1999/xlink"
   xmlns="http://www.w3.org/2000/svg"
   xmlns:svg="http://www.w3.org/2000/svg"
   xmlns:rdf="http://www.w3.org/1999/02/22-rdf-syntax-ns#"
   xmlns:cc="http://creativecommons.org/ns#"
   xmlns:dc="http://purl.org/dc/elements/1.1/">
  <metadata
     id="metadata40">
    <rdf:RDF>
      <cc:Work
         rdf:about="">
        <dc:format>image/svg+xml</dc:format>
        <dc:type
           rdf:resource="http://purl.org/dc/dcmitype/StillImage" />
      </cc:Work>
    </rdf:RDF>
  </metadata>
  <defs
     id="defs38">
    <linearGradient
       id="linearGradient3019">
      <stop
         style="stop-color:#996931;stop-opacity:1;"
         offset="0"
         id="stop3021" />
      <stop
         style="stop-color:#ce8e42;stop-opacity:1;"
         offset="1"
         id="stop3023" />
    </linearGradient>
    <radialGradient
       inkscape:collect="always"
       xlink:href="#linearGradient3019"
       id="radialGradient3025"
       cx="566.47192"
       cy="570.33453"
       fx="566.47192"
       fy="570.33453"
       r="277.98605"
       gradientTransform="matrix(0.02734734,-1.0561865,1.2463226,0.03227054,-273.13478,1041.6832)"
       gradientUnits="userSpaceOnUse" />
  </defs>
  <sodipodi:namedview
     pagecolor="#ffffff"
     bordercolor="#666666"
     borderopacity="1"
     objecttolerance="10"
     gridtolerance="10"
     guidetolerance="10"
     inkscape:pageopacity="0"
     inkscape:pageshadow="2"
     inkscape:window-width="1920"
     inkscape:window-height="1007"
     id="namedview36"
     showgrid="false"
     inkscape:zoom="0.75520001"
     inkscape:cx="405.85275"
     inkscape:cy="323.75529"
     inkscape:window-x="1365"
     inkscape:window-y="0"
     inkscape:window-maximized="1"
     inkscape:current-layer="svg2"
     inkscape:pagecheckerboard="0"
     inkscape:document-units="pt" />
  <path
     fill="#000000"
     d=" M 291.94 34.80 C 311.55 32.44 331.45 32.44 351.05 34.80 C 351.78 34.83 353.24 34.90 353.97 34.93 C 360.04 35.91 366.17 36.58 372.19 37.86 C 372.63 37.89 373.53 37.94 373.98 37.96 C 390.33 41.46 406.55 45.74 422.13 51.89 C 450.37 62.72 476.66 78.39 500.00 97.59 L 500.00 102.53 C 466.73 75.94 427.43 56.61 385.60 48.10 C 336.36 37.41 284.08 40.67 236.64 57.72 C 197.91 71.54 162.42 94.28 133.57 123.57 C 115.37 141.87 100.17 163.04 87.72 185.62 C 81.33 198.16 74.83 210.82 71.07 224.44 C 78.67 218.67 85.48 211.90 92.99 206.00 C 100.24 200.27 107.41 194.44 114.43 188.43 C 116.90 186.51 119.13 184.16 122.08 182.96 C 125.72 183.83 128.91 185.95 132.01 187.98 C 134.54 189.82 137.60 191.45 138.50 194.69 C 134.15 197.11 129.42 198.72 124.99 200.98 C 110.14 208.30 96.32 217.47 82.44 226.44 C 77.69 230.08 72.46 233.07 67.82 236.88 C 65.72 238.48 65.31 241.25 64.62 243.63 C 48.67 303.10 52.91 368.19 78.15 424.50 C 90.05 452.25 106.95 477.81 127.39 500.00 L 114.61 500.00 C 98.49 481.71 84.20 461.71 73.16 439.93 C 57.13 408.93 47.13 374.84 43.73 340.12 C 41.71 322.50 42.11 304.73 43.23 287.07 C 44.18 285.13 44.38 282.97 43.92 280.87 C 44.02 279.63 44.11 278.40 44.21 277.16 C 45.24 275.95 45.44 274.34 44.91 272.87 C 46.02 267.57 46.77 262.20 47.87 256.90 C 57.55 208.35 80.65 162.58 113.79 125.83 C 135.13 102.05 160.58 81.94 188.69 66.75 C 219.69 49.81 254.01 39.29 289.03 34.93 C 289.76 34.90 291.21 34.83 291.94 34.80 Z"
     id="path6" />
  <path
     fill="#a8a8a8"
     d=" M 289.03 34.93 C 289.30 33.32 291.52 33.21 291.94 34.80 C 291.21 34.83 289.76 34.90 289.03 34.93 Z"
     id="path8" />
  <path
     fill="#a8a8a8"
     d=" M 351.05 34.80 C 351.47 33.21 353.68 33.31 353.97 34.93 C 353.24 34.90 351.78 34.83 351.05 34.80 Z"
     id="path10" />
  <path
     fill="#b1b1b1"
     d=" M 372.19 37.86 C 372.67 36.38 373.27 36.41 373.98 37.96 C 373.53 37.94 372.63 37.89 372.19 37.86 Z"
     id="path12" />
  <path
     d="m 329.35,41.939995 c -31.50742,-0.156249 -63.05,5.118751 -92.7,15.775 -38.73,13.82 -74.225,36.56 -103.075,65.850005 -18.2,18.3 -33.4,39.47 -45.85,62.05 -6.39,12.54 -12.89,25.205 -16.65,38.825 7.6,-5.77 14.415,-12.55 21.925,-18.45 7.25,-5.73 14.405,-11.565 21.425,-17.575 2.47,-1.92 4.7,-4.275 7.65,-5.475 3.64,0.87 6.825,2.995 9.925,5.025 2.53,1.84 5.6,3.485 6.5,6.725 -4.35,2.42 -9.07,4.015 -13.5,6.275 -14.85,7.32 -28.67,16.505 -42.55,25.475 -4.75,3.64 -9.985,6.615 -14.625,10.425 -2.1,1.6 -2.51,4.37 -3.2,6.75 -15.95,59.47 -11.715,124.565 13.525,180.875 11.9,27.75 28.81,53.31 49.25,75.5 h 35.025 54.6 143 H 500 v -104.1 -121.3 -79.625 -92.45 C 466.73,75.924995 427.43,56.599995 385.6,48.089995 c -18.465,-4.00875 -37.34554,-6.056249 -56.25,-6.15 z M 311.775,201.065 c 1.92756,0.0375 3.69187,1.915 4.675,3.475 4,6.35 7.505,12.985 11.275,19.475 7.36,12.98 15.32,25.605 22.6,38.625 5.91,10.75 11.99,21.41 17.65,32.3 2.91,6.32 7.065,12.01 9.625,18.5 0.55,1.78 1.04,4.37 -0.95,5.45 -2.12,0.5 -4.52,0.21 -5.95,-1.6 -5.1,-5.17 -8.32,-11.805 -12.6,-17.625 -10.73,-15.08 -21.75,-29.975 -33.45,-44.325 -4.83,-5.51 -9.1,-11.51 -14.4,-16.6 -1.91,-1.87 -3.6,-3.95 -5.25,-6.05 -4.57,-5.08 -10.65,-8.62 -14.7,-14.2 -1.37,-2.28 0.85,-4.36 2.4,-5.8 5.26,-4.66 11.175,-8.705 17.725,-11.325 0.4575,-0.21376 0.90518,-0.30866 1.35,-0.3 z"
     id="path14"
     style="fill:url(#radialGradient3025);fill-opacity:1;stroke-width:0.8"
     sodipodi:nodetypes="sccccccccccccccccccccccccssccccccccccccccs" />
  <path
     fill="#000000"
     d=" M 310.43 201.37 C 312.87 200.23 315.23 202.63 316.44 204.55 C 320.44 210.90 323.95 217.54 327.72 224.03 C 335.08 237.01 343.05 249.64 350.33 262.66 C 356.24 273.41 362.32 284.07 367.98 294.96 C 370.89 301.28 375.05 306.96 377.61 313.45 C 378.16 315.23 378.65 317.81 376.66 318.89 C 374.54 319.39 372.12 319.12 370.69 317.31 C 365.59 312.14 362.38 305.49 358.10 299.67 C 347.37 284.59 336.35 269.70 324.65 255.35 C 319.82 249.84 315.55 243.83 310.25 238.74 C 308.34 236.87 306.65 234.81 305.00 232.71 C 300.43 227.63 294.34 224.08 290.29 218.50 C 288.92 216.22 291.16 214.13 292.71 212.69 C 297.97 208.03 303.88 203.99 310.43 201.37 Z"
     id="path18" />
  <path
     fill="#949494"
     d=" M 44.21 277.16 C 43.38 275.72 43.61 273.94 44.91 272.87 C 45.44 274.34 45.24 275.95 44.21 277.16 Z"
     id="path22" />
  <path
     fill="#888888"
     d=" M 43.23 287.07 C 42.32 285.00 42.33 282.60 43.92 280.87 C 44.38 282.97 44.18 285.13 43.23 287.07 Z"
     id="path26" />
  <text
     xml:space="preserve"
     style="font-style:normal;font-weight:normal;font-size:30px;line-height:1.25;font-family:sans-serif;fill:#000000;fill-opacity:1;stroke:none;stroke-width:0.75"
     x="138.74146"
     y="373.95734"
     id="text1714"><tspan
       sodipodi:role="line"
       id="tspan1712"
       style="font-style:normal;font-variant:normal;font-weight:normal;font-stretch:normal;font-family:'Comic Sans MS';-inkscape-font-specification:'Comic Sans MS';stroke-width:0.75"
       x="138.74146"
       y="373.95734" /></text>
  <path
     fill="#000000"
     d="m 258.78667,387.64795 c -0.49273,2.54462 -3.69627,3.02447 -5.87563,2.88046 -7.20675,-0.47769 -14.36209,-1.50095 -21.54773,-2.2369 -14.26946,-1.6121 -28.61149,-2.55126 -42.86684,-4.24828 -11.71296,-1.47958 -23.45205,-2.77587 -35.13261,-4.52928 -6.56681,-1.30933 -13.34241,-1.28351 -19.84356,-2.96158 -1.69699,-0.57872 -3.98294,-1.65661 -3.69812,-3.81693 0.80988,-1.93347 2.38943,-3.6647 4.60726,-3.7544 6.91025,-1.04625 13.90368,0.21624 20.85618,0.17613 17.81082,0.17614 35.63777,0.019 53.42892,-0.97297 7.02224,-0.64369 14.117,-0.56855 21.07811,-1.81575 2.53638,-0.42929 5.09629,-0.57981 7.6647,-0.67658 6.54035,-0.6845 12.74934,-3.41794 19.38483,-3.41474 2.55017,0.22308 2.91031,3.14938 3.15468,5.17077 0.65276,6.73143 0.45508,13.61822 -1.21019,20.20005 z"
     id="path18-9"
     style="stroke-width:0.962388" />
  <text
     xml:space="preserve"
     style="font-style:normal;font-weight:normal;font-size:115.814px;line-height:1.25;font-family:sans-serif;fill:#000000;fill-opacity:1;stroke:none;stroke-width:2.89535"
     x="-508.04807"
     y="-64.736572"
     id="text8038"
     transform="matrix(-0.24988092,-0.9559133,-1.0475585,-0.005503,0,0)"><tspan
       sodipodi:role="line"
       id="tspan8036"
       style="font-style:normal;font-variant:normal;font-weight:normal;font-stretch:normal;font-family:HanWangKanTan;-inkscape-font-specification:HanWangKanTan;stroke-width:2.89535"
       x="-508.04807"
       y="-64.736572">（</tspan></text>
</svg>
