<?xml version="1.0" encoding="UTF-8" standalone="no"?>
<svg
   width="500pt"
   height="500pt"
   viewBox="0 0 500 500"
   version="1.1"
   id="svg2"
   inkscape:version="1.1.1 (3bf5ae0d25, 2021-09-20)"
   sodipodi:docname="布丁繪圖頭像 慌亂.svg"
   inkscape:export-filename="/home/user/data/NetBeansProjects/blogger/Blogger-Editor/static/ImageTemplate/avatar/慌亂.png"
   inkscape:export-xdpi="80.540001"
   inkscape:export-ydpi="80.540001"
   xmlns:inkscape="http://www.inkscape.org/namespaces/inkscape"
   xmlns:sodipodi="http://sodipodi.sourceforge.net/DTD/sodipodi-0.dtd"
   xmlns:xlink="http://www.w3.org/1999/xlink"
   xmlns="http://www.w3.org/2000/svg"
   xmlns:svg="http://www.w3.org/2000/svg"
   xmlns:rdf="http://www.w3.org/1999/02/22-rdf-syntax-ns#"
   xmlns:cc="http://creativecommons.org/ns#"
   xmlns:dc="http://purl.org/dc/elements/1.1/">
  <metadata
     id="metadata40">
    <rdf:RDF>
      <cc:Work
         rdf:about="">
        <dc:format>image/svg+xml</dc:format>
        <dc:type
           rdf:resource="http://purl.org/dc/dcmitype/StillImage" />
      </cc:Work>
    </rdf:RDF>
  </metadata>
  <defs
     id="defs38">
    <rect
       x="267.33883"
       y="209.72833"
       width="352.08555"
       height="288.37074"
       id="rect1712" />
    <linearGradient
       id="linearGradient3019">
      <stop
         style="stop-color:#996931;stop-opacity:1;"
         offset="0"
         id="stop3021" />
      <stop
         style="stop-color:#ce8e42;stop-opacity:1;"
         offset="1"
         id="stop3023" />
    </linearGradient>
    <radialGradient
       inkscape:collect="always"
       xlink:href="#linearGradient3019"
       id="radialGradient989"
       cx="594.1701"
       cy="574.52112"
       fx="594.1701"
       fy="574.52112"
       r="296.51849"
       gradientTransform="matrix(-0.02811401,-2.0112976,1.9334075,-0.02702528,-499.90882,1791.4646)"
       gradientUnits="userSpaceOnUse" />
    <rect
       x="267.33883"
       y="209.72833"
       width="352.08555"
       height="288.37074"
       id="rect20982" />
    <rect
       x="267.33883"
       y="209.72833"
       width="352.08555"
       height="288.37074"
       id="rect57614" />
  </defs>
  <sodipodi:namedview
     pagecolor="#ffffff"
     bordercolor="#666666"
     borderopacity="1"
     objecttolerance="10"
     gridtolerance="10"
     guidetolerance="10"
     inkscape:pageopacity="0"
     inkscape:pageshadow="2"
     inkscape:window-width="1920"
     inkscape:window-height="1007"
     id="namedview36"
     showgrid="false"
     inkscape:zoom="0.53400706"
     inkscape:cx="646.9952"
     inkscape:cy="100.18594"
     inkscape:window-x="1365"
     inkscape:window-y="0"
     inkscape:window-maximized="1"
     inkscape:current-layer="svg2"
     inkscape:pagecheckerboard="0"
     inkscape:document-units="pt" />
  <path
     id="path105"
     style="fill:url(#radialGradient989);fill-opacity:1;stroke-width:1.33333"
     d="m 439.13281,55.933594 c -42.0099,-0.208333 -84.06627,6.82487 -123.59961,21.033203 -51.64,18.426667 -98.96692,48.747443 -137.43359,87.800783 -24.26667,24.4 -44.53281,52.62575 -61.13281,82.73242 -13.06256,24.98693 -14.76344,39.82625 -29.761797,66.0874 C 51.5187,380.98836 77.483648,512.68593 104.19922,566 c 15.86667,37 38.41463,71.07935 65.66797,100.66602 h 46.69922 72.80078 190.66601 186.63282 V 527.86719 366.13281 259.9668 136.69922 c -44.36,-35.45333 -96.75987,-61.21974 -152.53321,-72.566408 -24.62,-5.344999 -49.79406,-8.074218 -75,-8.199218 z M 415.69922,268.09961 c 0.003,6e-5 0.006,0.002 0.01,0.002 -0.009,-1.6e-4 -0.0183,0.002 -0.0273,0.002 0.006,8e-5 0.0118,-0.004 0.0176,-0.004 z m 6.16601,4.55273 c 0.0174,0.0271 0.0514,0.0531 0.0684,0.0801 0.17669,0.28048 0.33059,0.57418 0.50586,0.85547 -0.17645,-0.2832 -0.34166,-0.57311 -0.51953,-0.85547 -0.0165,-0.0261 -0.0379,-0.0538 -0.0547,-0.0801 z m 7.24219,12.22071 c 2.61622,4.60906 5.19552,9.24037 7.85938,13.82617 5.02155,8.85594 10.24715,17.59193 15.45898,26.33398 -5.21376,-8.74126 -10.44472,-17.47275 -15.46484,-26.32617 -2.66353,-4.58523 -5.23588,-9.22373 -7.85352,-13.83398 z m -15.7168,33.16406 c 0.0935,0.093 0.1811,0.19088 0.2754,0.2832 3.64871,3.50414 6.93038,7.33681 10.13867,11.23438 -3.20742,-3.89299 -6.491,-7.71756 -10.13867,-11.22071 -0.0965,-0.0945 -0.17969,-0.20158 -0.2754,-0.29687 z m 19.47657,22.42969 c 15.6,19.13333 30.29294,38.98708 44.59961,59.09375 2.7546,3.74574 5.17728,7.74706 7.71093,11.66211 -2.53622,-3.90935 -4.95698,-7.91139 -7.71093,-11.65625 -14.30667,-20.10667 -28.99961,-39.96628 -44.59961,-59.09961 z m 69.34375,84.7207 c -0.005,0.003 -0.006,0.009 -0.0117,0.0117 -0.0568,0.0134 -0.11676,0.0109 -0.17383,0.0234 0.0614,-0.0134 0.12447,-0.0208 0.18555,-0.0352 z m -359.03711,10.7793 c -1.10669,0.97053 -2.63632,1.77393 -3.87305,2.75976 1.23886,-0.98423 2.76466,-1.78563 3.87305,-2.75976 z m 0.16992,0.13281 c 1.26458,3.07816 1.85133,7.24334 5.52344,8.36719 3.98732,1.63803 8.18524,2.46628 12.42969,3.0957 -4.25091,-0.62415 -8.45699,-1.44438 -12.44336,-3.08203 -3.66855,-1.12276 -4.24824,-5.30274 -5.50977,-8.38086 z m -5.5918,4.31445 c -0.006,0.01 -0.0157,0.0174 -0.0215,0.0274 0.006,-0.01 0.0157,-0.0175 0.0215,-0.0274 z m 2.52539,8.57813 c 0.73037,0.76578 1.48313,1.52623 2.14258,2.33789 -0.65899,-0.81114 -1.41368,-1.57128 -2.14258,-2.33789 z m 34.54102,0.44922 c 17.09248,2.21778 34.16147,4.70091 51.2793,6.71093 -17.11944,-2.01033 -34.18549,-4.49314 -51.2793,-6.71093 z m -32.29492,2.01562 c 0.71005,0.89456 1.29432,1.85634 1.58594,2.96485 -0.29443,-1.10564 -0.87505,-2.06942 -1.58594,-2.96485 z m 85.60937,4.96094 c 17.12946,2.45282 34.32038,4.61117 51.5,6.68164 5.19507,0.71473 10.40695,1.42439 15.63477,1.92383 -5.22995,-0.49457 -10.44356,-1.20101 -15.64063,-1.91602 -17.18173,-2.07072 -34.36305,-4.23578 -51.49414,-6.68945 z m 67.37696,8.62891 c 2.36037,0.22247 4.72471,0.38737 7.09179,0.50195 -2.36725,-0.11272 -4.73123,-0.28176 -7.09179,-0.50195 z m 8.33398,0.55468 c 2.24107,0.0868 4.48533,0.10853 6.73242,0.0586 -2.24713,0.0503 -4.49128,0.0266 -6.73242,-0.0586 z m 30.22852,2.76367 c 0.0415,0.0142 0.0855,0.0209 0.12695,0.0352 0.0529,0.092 0.0923,0.19616 0.14453,0.28906 -0.0534,-0.095 -0.10213,-0.19496 -0.15625,-0.28906 -0.0379,-0.0131 -0.0773,-0.0222 -0.11523,-0.0352 z m 1.60351,3.00196 c 0.0613,0.14208 0.12103,0.28051 0.17969,0.42383 -0.0584,-0.1423 -0.11871,-0.28274 -0.17969,-0.42383 z m 1.21484,3.58789 c 0.0126,0.0531 0.025,0.10504 0.0371,0.1582 -0.0121,-0.0529 -0.0245,-0.1054 -0.0371,-0.1582 z m 0.45508,3.61523 c 6e-5,0.015 -0.002,0.0299 -0.002,0.0449 -1e-5,-0.015 0.002,-0.0299 0.002,-0.0449 z m -0.47265,3.52344 c -0.004,0.0129 -0.002,0.0261 -0.006,0.0391 -0.0128,0.048 -0.034,0.0927 -0.0469,0.14063 0.014,-0.052 0.033,-0.10226 0.0469,-0.1543 0.002,-0.008 0.003,-0.0169 0.006,-0.0254 z m -1.92383,5.91016 c -0.051,0.13395 -0.10447,0.26676 -0.15625,0.40039 0.0518,-0.13361 0.10525,-0.26647 0.15625,-0.40039 z m -2.43555,5.71289 c -0.10183,0.21808 -0.20924,0.43291 -0.3125,0.65039 0.10319,-0.21733 0.21074,-0.43246 0.3125,-0.65039 z m -5.67187,11.08008 c -0.0827,0.15552 -0.15957,0.31519 -0.24219,0.4707 -0.0268,0.0491 -0.0629,0.0916 -0.0898,0.14062 0.0241,-0.0439 0.0521,-0.0849 0.0762,-0.1289 0.0852,-0.16035 0.17052,-0.32203 0.25586,-0.48242 z m -4.65039,7.32226 c -0.0697,0.0945 -0.13885,0.18905 -0.20899,0.2832 0.0701,-0.0941 0.13937,-0.18877 0.20899,-0.2832 z m -155.60352,1.11914 c 0.0185,0.0354 0.0342,0.072 0.0527,0.10742 -0.002,-0.004 -0.006,-0.008 -0.008,-0.0117 -0.0164,-0.0313 -0.0286,-0.0644 -0.0449,-0.0957 z m 150.39649,5.21484 c -0.14587,0.16156 -0.29255,0.32174 -0.43946,0.48243 0.14689,-0.16057 0.29362,-0.32099 0.43946,-0.48243 z m -5.64454,5.84376 c -2.08857,2.04808 -4.2137,4.05505 -6.33984,6.0371 -0.11344,0.0978 -0.23773,0.18387 -0.35156,0.28125 0.11129,-0.0952 0.22697,-0.18565 0.33789,-0.28125 2.12844,-1.9842 4.26274,-3.98803 6.35351,-6.0371 z m -137.64062,1.42187 c 2.15717,3.50915 4.32392,7.01427 6.29101,10.63477 -1.96652,-3.61901 -4.12998,-7.12725 -6.29101,-10.63477 z m 124.71875,9.86719 c -0.1885,0.1396 -0.37501,0.27961 -0.56445,0.41797 0.1891,-0.1382 0.37628,-0.27853 0.56445,-0.41797 z m -117.38672,2.82226 c 0.44628,0.93776 0.89771,1.87535 1.33789,2.82422 -0.4383,-0.95025 -0.89224,-1.88507 -1.33789,-2.82422 z m 109.85156,2.25782 c -0.0641,0.0388 -0.12722,0.0785 -0.1914,0.11718 0.0641,-0.0386 0.12741,-0.0784 0.1914,-0.11718 z m -7.74804,4.16992 c -0.0781,0.0368 -0.15616,0.0728 -0.23438,0.10937 0.0781,-0.0365 0.15637,-0.0726 0.23438,-0.10937 z m -8.19336,3.28711 c -0.0367,0.0122 -0.0707,0.0308 -0.10743,0.043 -0.11323,0.0385 -0.22853,0.071 -0.34179,0.10937 0.11558,-0.0392 0.2321,-0.076 0.34765,-0.11523 0.0343,-0.0113 0.0673,-0.0257 0.10157,-0.0371 z m -21.05664,6.69726 c -0.3756,0.11084 -0.75109,0.22017 -1.12696,0.33008 0.37578,-0.10984 0.75145,-0.21932 1.12696,-0.33008 z m -21.9336,5.86719 c -0.1848,0.0441 -0.36591,0.10266 -0.55078,0.14648 -1.87906,0.4277 -3.8011,0.84056 -5.73828,1.18555 1.93798,-0.3451 3.85972,-0.76578 5.73828,-1.19336 0.18422,-0.0437 0.36663,-0.0947 0.55078,-0.13867 z m -17.13867,1.89648 c 0.0533,0.007 0.10685,0.009 0.16016,0.0156 -0.0534,-0.006 -0.10679,-0.009 -0.16016,-0.0156 z m 5.88086,0.0859 c -0.15485,0.0117 -0.30808,0.0254 -0.46289,0.0352 0.1544,-0.01 0.30846,-0.0234 0.46289,-0.0352 z"
     sodipodi:nodetypes="scccccccccccccccscccscccsccccccccccccccccccccccccccccccccccccccccccccccccccccccccccccccccccccccccccccccccccccccccccccccccccccccccccccccccccccccccccccccccccccccccc"
     transform="scale(0.75)" />
  <path
     fill="#000000"
     d="m 291.94,34.8 c 19.61,-2.36 39.51,-2.36 59.11,0 0.73,0.03 2.19,0.1 2.92,0.13 6.07,0.98 12.2,1.65 18.22,2.93 0.44,0.03 1.34,0.08 1.79,0.1 16.35,3.5 32.57,7.78 48.15,13.93 28.24,10.83 54.53,26.5 77.87,45.7 v 4.94 C 466.73,75.94 427.43,56.61 385.6,48.1 336.36,37.41 284.08,40.67 236.64,57.72 197.91,71.54 162.42,94.28 133.57,123.57 96.960524,170.62489 92.191537,166.39136 64.62,243.63 48.67,303.1 52.91,368.19 78.15,424.5 c 11.9,27.75 28.8,53.31 49.24,75.5 H 114.61 C 98.49,481.71 84.2,461.71 73.16,439.93 c -16.03,-31 -26.03,-65.09 -29.43,-99.81 -2.60219,-29.5294 -1.314002,-55.92241 4.14,-83.22 9.68,-48.55 32.78,-94.32 65.92,-131.07 21.34,-23.78 46.79,-43.89 74.9,-59.08 31,-16.94 65.32,-27.46 100.34,-31.82 0.73,-0.03 2.18,-0.1 2.91,-0.13 z"
     id="path6"
     sodipodi:nodetypes="cccccccccccccccccccccc" />
  <path
     fill="#a8a8a8"
     d=" M 289.03 34.93 C 289.30 33.32 291.52 33.21 291.94 34.80 C 291.21 34.83 289.76 34.90 289.03 34.93 Z"
     id="path8" />
  <path
     fill="#a8a8a8"
     d=" M 351.05 34.80 C 351.47 33.21 353.68 33.31 353.97 34.93 C 353.24 34.90 351.78 34.83 351.05 34.80 Z"
     id="path10" />
  <path
     fill="#b1b1b1"
     d=" M 372.19 37.86 C 372.67 36.38 373.27 36.41 373.98 37.96 C 373.53 37.94 372.63 37.89 372.19 37.86 Z"
     id="path12" />
  <path
     id="text1710"
     style="font-style:normal;font-weight:normal;font-size:173.333px;line-height:1.25;font-family:sans-serif;white-space:pre;shape-inside:url(#rect1712);fill:#000000;fill-opacity:1;stroke:none;stroke-width:0.891554"
     d="m 288.24609,158.87305 c -8.83431,0.12254 -17.88388,1.56688 -25.7207,5.83984 -5.60527,2.91895 -10.38619,7.27746 -14.07992,12.3839 -3.90242,5.34125 -6.87091,11.47729 -8.80289,17.72352 -1.38462,4.46747 -2.22522,9.0981 -2.56055,13.76172 -0.0173,0.42429 -0.0722,1.1598 -0.0879,1.61618 -0.20998,4.65391 0.0989,9.32726 0.88084,13.91898 0.12893,0.71947 0.31122,1.74769 0.49346,2.5789 2.28054,11.0316 7.19419,21.40011 13.61787,30.61055 0.46486,0.64563 1.09154,1.54355 1.64534,2.26843 1.41416,1.95547 3.27497,3.52884 4.97282,5.23012 9.96747,9.51702 21.80249,17.36415 35.06261,21.39841 3.82164,1.18059 7.73148,1.94082 11.72859,2.65161 6.60305,1.05915 13.57607,1.37656 19.97121,-0.89608 2.65685,-1.02463 5.58783,-2.34895 6.86748,-5.07436 1.10523,-2.45673 0.6457,-5.24286 0.25274,-7.80878 -0.60928,-2.85625 -1.79063,-5.64109 -3.58978,-7.94534 -1.55578,-1.39764 -3.48767,-2.93448 -5.71655,-2.61929 -1.98443,0.39442 -3.17369,2.22702 -4.85276,3.19706 -4.75707,3.20627 -10.7329,4.24614 -16.36534,3.47106 -4.59075,-0.57718 -9.05623,-2.01929 -13.22723,-3.99412 -9.54519,-5.82923 -18.18177,-13.55768 -23.76671,-23.34747 -2.80654,-4.88452 -4.74469,-10.23141 -5.96485,-15.72249 -2.5437,-9.85494 -2.19355,-20.43893 1.07858,-30.08286 1.65506,-4.97353 3.95041,-9.73703 6.7769,-14.14777 4.65877,-5.58462 10.50204,-10.46364 17.50797,-12.73281 7.46608,-2.47727 15.77301,-1.54705 22.86763,1.67096 8.7724,3.75313 16.79829,9.61601 22.27437,17.50603 4.73216,6.73794 7.54201,14.68979 8.83002,22.78418 1.21825,7.85082 0.58419,16.0004 -2.03611,23.51287 -0.62837,1.77838 -1.28149,3.58111 -2.21342,5.21775 -1.45638,1.83815 -3.42553,3.62042 -5.90858,3.64993 -2.28966,0.0563 -4.47268,-1.58793 -5.02892,-3.81595 -1.1255,-3.29617 -1.15295,-6.82088 -1.51888,-10.25086 -0.29911,-3.39855 -0.64948,-6.97494 -1.25455,-10.2257 -0.51499,-2.3798 -2.50908,-4.07457 -4.40315,-5.42962 -0.57393,-0.38937 -1.02472,-0.69553 -1.68363,-1.051 -1.37437,-0.65128 -2.76132,-1.38555 -3.78236,-2.54086 -0.0212,1.41687 -0.30823,2.82136 -0.32902,4.24364 -0.52843,6.60629 -2.49488,13.34915 -6.866,18.46566 -1.67036,2.14167 -4.55668,3.60797 -7.27593,2.76795 -2.74209,-0.71668 -4.47502,-3.27121 -5.4139,-5.7903 -1.17596,-3.23915 -0.96222,-6.74357 -1.04289,-10.13031 0.0614,-4.26852 0.43282,-8.57557 1.57617,-12.69895 0.99459,-2.81363 3.27768,-5.41992 6.36133,-5.84793 3.5025,-0.48413 6.90757,1.14314 9.66602,3.16407 0.82859,0.62918 1.5538,1.39809 2.11718,2.27343 0.16789,-1.33389 1.16293,-2.31736 2.15517,-3.11586 1.22501,-1.25677 1.3542,-3.14057 0.95616,-4.76695 -0.86946,-4.35668 -3.95032,-7.88409 -7.40755,-10.49103 -1.98162,-1.49455 -4.07141,-2.9184 -6.3876,-3.83601 -0.39477,-0.11146 -1.06145,-0.39974 -1.15396,0.22298 -0.46326,1.36631 -1.50783,2.46525 -2.8301,3.0317 -2.22704,0.98475 -4.76034,0.79942 -7.01897,1.70193 -4.17791,1.40473 -7.68659,4.47921 -9.82803,8.31028 -3.13606,5.43435 -4.27429,11.74084 -4.88594,17.90998 -0.14472,1.72242 -0.20736,3.38264 -0.17436,5.15791 0.0707,5.76835 1.44583,11.73894 4.52254,16.74761 1.16371,1.79782 2.39668,3.60939 4.01948,5.0252 3.99252,2.76573 8.76775,4.92451 13.73051,4.49955 3.33758,-0.22704 6.40652,-1.75981 9.1502,-3.57883 2.06631,-1.24183 4.85367,-1.60192 6.92589,-0.17393 1.70984,1.05138 2.36261,3.03431 3.1977,4.73959 1.82887,3.22973 5.33941,5.02918 8.81367,5.94195 3.6438,1.02194 7.6551,0.96824 11.12766,-0.6349 4.10612,-1.80506 7.41114,-5.05271 10.04473,-8.61917 3.61334,-5.14882 6.01103,-11.13151 7.05257,-17.32981 0.0459,-0.3169 0.16177,-1.01301 0.21921,-1.49153 0.68904,-5.13508 0.42435,-10.34836 -0.33344,-15.45933 -0.19798,-1.6477 -0.4432,-3.19391 -0.78752,-4.85957 -1.82086,-8.90233 -5.70536,-17.38415 -11.25196,-24.5794 -7.6454,-9.39223 -18.06958,-16.40014 -29.48608,-20.35664 -4.78554,-1.65207 -9.76553,-2.67782 -14.77623,-3.35314 -1.57491,-0.18933 -3.37119,-0.41512 -5.04523,-0.40161 -0.53501,-0.007 -1.07012,0.005 -1.60516,0.005 z" />
  <g
     aria-label="W"
     transform="matrix(0.88596212,0.10018017,-0.15621903,0.56814999,3.6508668,154.55966)"
     id="text23196"
     style="font-size:406.171px;line-height:1.25;stroke-width:0.76157">
    <path
       d="m 173.32261,294.03819 c -5.41561,-2.16625 -12.94915,-4.64451 -10.7829,-9.51856 2.16625,-4.60327 5.28022,-6.22796 9.34193,-4.87405 4.33249,1.3539 7.44647,3.52015 9.34193,6.49874 1.89547,2.70781 3.38476,5.82178 4.46789,9.34193 1.08312,3.24937 1.89546,6.76951 2.43702,10.56044 0.54156,3.79093 1.48929,8.93577 2.8432,15.4345 1.3539,6.22795 2.57241,14.62215 3.65554,25.1826 1.3539,10.56045 3.52014,20.85011 6.49873,30.869 4.06097,-1.52643 11.57285,-15.9366 13.7391,-25.41392 2.16625,-9.47733 4.87405,-18.81926 8.12342,-28.0258 7.85264,-22.47479 19.38145,-25.07483 22.7258,-25.23368 3.83791,-0.57403 4.43685,-0.67725 8.52959,0.40617 2.16624,1.89547 3.92632,3.52015 5.28022,4.87405 1.62468,1.35391 3.24937,3.65554 4.87405,6.90491 1.62468,2.97859 2.57242,7.17569 2.8432,12.5913 0.54156,5.41561 1.94276,12.09375 2.75511,20.75873 1.37724,7.97212 0.0432,-0.57395 1.39709,11.61118 1.62469,12.18513 4.33249,23.96408 8.12342,35.33687 7.85264,-10.83123 14.75755,-22.74558 20.71472,-35.74305 12.45591,-27.07806 20.03777,-43.3249 22.74558,-48.74051 2.97859,-5.41561 5.28022,-9.74811 6.90491,-12.99748 1.62468,-3.52015 3.24936,-6.9049 4.87405,-10.15427 4.33249,-7.85264 8.93576,-12.32052 13.80981,-13.40364 4.60327,-0.27078 7.58186,1.48929 8.93576,5.28022 1.35391,3.52015 0.27079,6.63412 -3.24936,9.34193 -1.08313,1.89547 -2.03086,3.52015 -2.8432,4.87405 -0.81234,1.08313 -2.16624,3.38476 -4.06171,6.90491 -7.58186,12.45591 -14.21599,25.45339 -19.90238,38.99242 -5.41561,13.53903 -10.28966,24.64104 -14.62215,33.30602 -10.28967,20.85011 -20.17316,34.65992 -29.65049,41.42944 -4.33249,2.43703 -8.3942,1.89546 -12.18513,-1.62469 -8.3942,-8.66498 -13.76492,-17.74775 -19.18053,-66.48827 -1.08312,-10.83123 -1.76805,-16.81503 -4.62753,-24.56473 -7.49636,-10.40755 -17.62138,15.64059 -24.93246,40.28163 -1.08312,3.52015 -2.99856,7.30652 -4.77823,12.29756 -1.58664,3.97408 -2.14989,4.81139 -3.23302,8.8731 -3.27645,8.22842 -7.33751,24.48095 -17.00004,14.4171 -6.76952,-11.64357 -8.74922,-19.57047 -12.54015,-43.94073 -1.62469,-9.47732 -3.11398,-18.95464 -4.46788,-28.43197 -1.35391,-9.47732 -3.65554,-18.54847 -6.90491,-27.21345 z"
       style="font-family:Karumbi;-inkscape-font-specification:Karumbi"
       id="path54379"
       sodipodi:nodetypes="cccccscccscccccccccccccccccccccccccccccsc" />
  </g>
  <path
     id="text57612"
     style="font-style:normal;font-weight:normal;font-size:173.333px;line-height:1.25;font-family:sans-serif;white-space:pre;shape-inside:url(#rect57614);fill:#000000;fill-opacity:1;stroke:none;stroke-width:0.631995"
     d="m 131.0104,150.48354 c -3.98243,0.0491 -8.1052,0.54462 -11.86967,1.53942 -2.28334,0.59832 -4.51516,1.40173 -6.60154,2.34773 -6.82608,3.02038 -12.611897,7.89703 -17.430332,13.42391 -0.685491,0.79254 -1.50468,1.76124 -2.204316,2.65339 -7.223557,9.04853 -12.232727,19.97178 -13.235829,31.4531 -0.152497,1.74129 -0.216081,3.26556 -0.195631,5.02249 0.08218,5.70926 1.156514,11.42812 3.300947,16.74724 3.902069,6.72851 9.433439,12.78696 16.593078,16.31891 2.395673,1.19823 5.018873,2.1154 7.552773,2.73202 2.71605,0.63909 5.46899,1.19967 8.26902,1.31771 0.67803,0.0318 1.62941,0.048 2.41346,0.0144 3.94094,-0.15405 7.94911,-1.15287 11.21323,-3.36372 1.74795,-1.28446 2.80752,-3.26244 3.2343,-5.32347 0.58858,-2.28313 0.73713,-4.76871 -0.0945,-7.0092 -0.58814,-0.90579 -1.6777,-1.82838 -2.85086,-1.35841 -1.5698,0.63007 -2.79875,1.84347 -4.33618,2.54426 -3.9153,2.08594 -8.57015,2.90665 -12.96243,2.01487 -2.67189,-0.52089 -5.27441,-1.5009 -7.56636,-2.93056 -5.14323,-4.14006 -9.17019,-9.73851 -10.764914,-16.09122 -1.053654,-4.00818 -1.147691,-8.31661 -0.651057,-12.34001 0.722019,-8.8347 4.42409,-17.23306 9.599711,-24.45294 2.11954,-2.93138 4.40727,-5.76639 6.9628,-8.34855 4.92438,-4.26217 10.55765,-8.08267 17.06615,-9.56941 4.76642,-1.06885 9.98088,-0.53832 14.22912,1.90016 4.78421,2.52939 8.82329,6.54256 10.84681,11.50233 2.30417,5.51155 2.27985,11.65584 1.34497,17.45104 -1.31869,7.90818 -4.99181,15.32651 -9.99837,21.64508 -1.601,1.42864 -3.52003,3.00782 -5.84176,2.81162 -1.71452,-0.13556 -3.0831,-1.72182 -2.93419,-3.38662 -3.1e-4,-2.7749 0.9453,-5.43548 1.56569,-8.1163 0.5847,-2.42883 1.24529,-4.85505 1.55561,-7.334 -0.0306,-1.76756 -1.52303,-3.11802 -2.96528,-3.98706 -0.31312,-0.13389 -0.69562,-0.68098 -0.91127,-0.6499 -0.91593,2.02059 -1.65686,4.11896 -2.74669,6.06422 -2.14279,3.99955 -4.94271,7.75819 -8.61815,10.55198 -1.60726,1.17474 -3.90225,1.91798 -5.77722,0.88602 -1.83119,-0.95784 -2.33207,-3.17205 -2.28931,-5.04068 0.10452,-2.54691 1.08925,-4.95228 1.85611,-7.36054 1.1457,-3.18578 2.46881,-6.34349 4.29257,-9.22276 1.56329,-2.18157 3.97011,-4.14484 6.84346,-4.1097 2.44279,0.0449 4.76425,1.43271 6.13429,3.34085 0.77814,-1.07432 2.18526,-1.51559 2.85262,-2.68923 0.95383,-1.52456 1.02479,-3.44726 0.67016,-5.15953 -0.61622,-2.61945 -2.60721,-4.72721 -4.80732,-6.24144 -0.36365,-0.29692 -0.88172,-0.55648 -1.09514,0.0192 -1.14556,1.71197 -3.24693,2.45897 -5.24954,2.68244 -4.8392,0.63405 -9.02528,3.6053 -12.0391,7.22201 -3.40613,4.03904 -5.79815,8.78731 -7.75515,13.62362 -1.68513,4.4074 -2.89203,9.23751 -1.87751,13.93227 0.35555,1.25831 0.67739,2.61915 1.54174,3.64531 2.05944,2.00104 5.00674,3.24118 7.94302,2.83623 2.58581,-0.2786 4.89619,-1.5229 7.14518,-2.70282 1.62752,-0.76539 3.81961,-1.0668 5.24894,0.24432 1.1278,0.97484 1.20345,2.52846 1.32658,3.88545 0.32746,1.80375 1.99448,2.98872 3.68677,3.52386 2.68263,0.99946 5.70333,0.63279 8.27124,-0.51337 3.56808,-1.55827 6.63673,-4.03368 9.33578,-6.75169 5.48892,-5.64464 9.59648,-12.58728 11.60152,-20.12223 0.84753,-3.34611 1.59482,-6.73498 1.85407,-10.17886 0.0222,-0.43012 0.0639,-0.94009 0.0777,-1.43269 0.14916,-4.47784 -0.43645,-9.03576 -2.12332,-13.22323 -2.65854,-6.13729 -7.86426,-11.07904 -14.06184,-13.83981 -3.9199,-1.72503 -8.1857,-2.62297 -12.4532,-3.02589 -0.70622,-0.0407 -1.41438,-0.0264 -2.12143,-0.0217 z" />
</svg>
