<?xml version="1.0" encoding="UTF-8" standalone="no"?>
<svg
   xmlns:dc="http://purl.org/dc/elements/1.1/"
   xmlns:cc="http://creativecommons.org/ns#"
   xmlns:rdf="http://www.w3.org/1999/02/22-rdf-syntax-ns#"
   xmlns:svg="http://www.w3.org/2000/svg"
   xmlns="http://www.w3.org/2000/svg"
   xmlns:xlink="http://www.w3.org/1999/xlink"
   xmlns:sodipodi="http://sodipodi.sourceforge.net/DTD/sodipodi-0.dtd"
   xmlns:inkscape="http://www.inkscape.org/namespaces/inkscape"
   width="500pt"
   height="500pt"
   viewBox="0 0 500 500"
   version="1.1"
   id="svg2"
   inkscape:version="0.48.5 r10040"
   sodipodi:docname="布丁繪圖頭像 (無框有背景).svg"
   inkscape:export-filename="D:\OUTTY_DOCUMENT\基本文件\2011~2015 政大圖檔所博士班\布丁繪圖頭像 (無框有背景).png"
   inkscape:export-xdpi="80.540001"
   inkscape:export-ydpi="80.540001">
  <metadata
     id="metadata40">
    <rdf:RDF>
      <cc:Work
         rdf:about="">
        <dc:format>image/svg+xml</dc:format>
        <dc:type
           rdf:resource="http://purl.org/dc/dcmitype/StillImage" />
        <dc:title></dc:title>
      </cc:Work>
    </rdf:RDF>
  </metadata>
  <defs
     id="defs38">
    <linearGradient
       id="linearGradient3019">
      <stop
         style="stop-color:#996931;stop-opacity:1;"
         offset="0"
         id="stop3021" />
      <stop
         style="stop-color:#ce8e42;stop-opacity:1;"
         offset="1"
         id="stop3023" />
    </linearGradient>
    <radialGradient
       inkscape:collect="always"
       xlink:href="#linearGradient3019"
       id="radialGradient3025"
       cx="566.47192"
       cy="570.33453"
       fx="566.47192"
       fy="570.33453"
       r="277.98605"
       gradientTransform="matrix(0.03418417,-1.3202331,1.5579033,0.04033817,-341.41847,1302.1165)"
       gradientUnits="userSpaceOnUse" />
  </defs>
  <sodipodi:namedview
     pagecolor="#ffffff"
     bordercolor="#666666"
     borderopacity="1"
     objecttolerance="10"
     gridtolerance="10"
     guidetolerance="10"
     inkscape:pageopacity="0"
     inkscape:pageshadow="2"
     inkscape:window-width="1280"
     inkscape:window-height="658"
     id="namedview36"
     showgrid="false"
     inkscape:zoom="0.75520001"
     inkscape:cx="129.81006"
     inkscape:cy="508.08941"
     inkscape:window-x="-8"
     inkscape:window-y="-8"
     inkscape:window-maximized="1"
     inkscape:current-layer="svg2" />
  <rect
     style="fill:#b57939;fill-opacity:1;fill-rule:nonzero;stroke:none"
     id="rect3762"
     width="629.2052"
     height="627.33252"
     x="0"
     y="-0.459907"
     transform="scale(0.8,0.8)" />
  <path
     d=" M 102.92 332.06 C 102.69 329.37 105.78 328.43 107.45 326.92 C 108.44 329.24 108.83 332.50 111.64 333.36 C 117.19 335.64 123.30 335.84 129.16 336.82 C 142.92 338.58 156.65 340.62 170.43 342.22 C 183.50 344.10 196.61 345.75 209.72 347.33 C 217.57 348.41 225.47 349.47 233.42 349.24 C 239.21 348.67 245.15 349.41 250.64 351.30 C 252.40 354.36 253.66 358.07 252.65 361.59 C 251.01 367.75 247.91 373.37 244.94 378.96 C 240.93 386.30 234.79 392.11 228.74 397.75 C 222.08 403.49 214.52 408.35 206.13 411.12 C 195.42 414.76 184.56 418.01 173.55 420.62 C 168.19 421.84 162.38 423.05 157.09 420.92 C 150.74 418.41 145.22 414.26 139.83 410.16 C 137.37 408.35 136.65 405.25 135.24 402.71 C 132.02 396.69 128.00 391.13 124.98 385.01 C 122.50 380.27 120.50 375.31 118.32 370.42 C 114.30 360.78 110.90 350.90 108.09 340.84 C 107.21 337.42 102.62 335.86 102.92 332.06 Z"
     id="path28"
     fill="#000000" />
  <path
     d="m 291.94,34.8 c 19.61,-2.36 39.51,-2.36 59.11,0 0.73,0.03 2.19,0.1 2.92,0.13 6.07,0.98 12.2,1.65 18.22,2.93 0.44,0.03 1.34,0.08 1.79,0.1 16.35,3.5 32.57,7.78 48.15,13.93 28.24,10.83 54.53,26.5 77.87,45.7 l 0,4.94 C 466.73,75.94 427.43,56.61 385.6,48.1 336.36,37.41 284.08,40.67 236.64,57.72 c -38.73,13.82 -74.22,36.56 -103.07,65.85 -18.2,18.3 -33.4,39.47 -45.85,62.05 -6.39,12.54 -12.89,25.2 -16.65,38.82 7.6,-5.77 14.41,-12.54 21.92,-18.44 7.25,-5.73 14.42,-11.56 21.44,-17.57 2.47,-1.92 4.7,-4.27 7.65,-5.47 3.64,0.87 6.83,2.99 9.93,5.02 2.53,1.84 5.59,3.47 6.49,6.71 -4.35,2.42 -9.08,4.03 -13.51,6.29 -14.85,7.32 -28.67,16.49 -42.55,25.46 -4.75,3.64 -9.98,6.63 -14.62,10.44 -2.1,1.6 -2.51,4.37 -3.2,6.75 -15.95,59.47 -11.71,124.56 13.53,180.87 11.9,27.75 28.8,53.31 49.24,75.5 l -12.78,0 C 98.49,481.71 84.2,461.71 73.16,439.93 c -16.03,-31 -26.03,-65.09 -29.43,-99.81 -2.02,-17.62 -1.62,-35.39 -0.5,-53.05 0.221716,-2.20483 -0.04174,-3.83517 0.160339,-6.2 0.1,-1.24 0.360248,-2.73483 0.356208,-3.97483 -0.04162,-1.21 0.413754,-2.55517 0.435169,-4.02517 C 44.136866,267.57 46.77,262.2 47.87,256.9 c 9.68,-48.55 32.78,-94.32 65.92,-131.07 21.34,-23.78 46.79,-43.89 74.9,-59.08 31,-16.94 65.32,-27.46 100.34,-31.82 0.73,-0.03 2.18,-0.1 2.91,-0.13 z"
     id="path6"
     inkscape:connector-curvature="0"
     style="fill:#000000"
     sodipodi:nodetypes="cccccccccccccccccccccccccccccccccccc" />
  <path
     d="M 411.6875 52.4375 C 372.30322 52.242188 332.875 58.835938 295.8125 72.15625 C 247.4 89.43125 203.03125 117.85625 166.96875 154.46875 C 144.21875 177.34375 125.21875 203.80625 109.65625 232.03125 C 101.66875 247.70625 93.54375 263.5375 88.84375 280.5625 C 98.34375 273.35 106.8625 264.875 116.25 257.5 C 125.3125 250.3375 134.25625 243.04375 143.03125 235.53125 C 146.11875 233.13125 148.90625 230.1875 152.59375 228.6875 C 157.14375 229.775 161.125 232.43125 165 234.96875 C 168.1625 237.26875 172 239.325 173.125 243.375 C 167.6875 246.4 161.7875 248.39375 156.25 251.21875 C 137.6875 260.36875 120.4125 271.85 103.0625 283.0625 C 97.125 287.6125 90.58125 291.33125 84.78125 296.09375 C 82.15625 298.09375 81.64375 301.55625 80.78125 304.53125 C 60.84375 378.86875 66.1375 460.2375 97.6875 530.625 C 112.5625 565.3125 133.7 597.2625 159.25 625 L 203.03125 625 L 271.28125 625 L 450.03125 625 L 625 625 L 625 494.875 L 625 343.25 L 625 243.71875 L 625 128.15625 C 583.4125 94.91875 534.2875 70.7625 482 60.125 C 458.91875 55.114062 435.31807 52.554688 411.6875 52.4375 z M 389.71875 251.34375 C 392.1282 251.39064 394.33359 253.7375 395.5625 255.6875 C 400.5625 263.625 404.94375 271.91875 409.65625 280.03125 C 418.85625 296.25625 428.80625 312.0375 437.90625 328.3125 C 445.29375 341.75 452.89375 355.075 459.96875 368.6875 C 463.60625 376.5875 468.8 383.7 472 391.8125 C 472.6875 394.0375 473.3 397.275 470.8125 398.625 C 468.1625 399.25 465.1625 398.8875 463.375 396.625 C 457 390.1625 452.975 381.86875 447.625 374.59375 C 434.2125 355.74375 420.4375 337.125 405.8125 319.1875 C 399.775 312.3 394.4375 304.8 387.8125 298.4375 C 385.425 296.1 383.3125 293.5 381.25 290.875 C 375.5375 284.525 367.9375 280.1 362.875 273.125 C 361.1625 270.275 363.9375 267.675 365.875 265.875 C 372.45 260.05 379.84375 254.99375 388.03125 251.71875 C 388.60312 251.45156 389.16272 251.33293 389.71875 251.34375 z M 134.3125 408.65625 C 135.55 411.55625 136.05 415.6125 139.5625 416.6875 C 146.5 419.5375 154.1125 419.80625 161.4375 421.03125 C 178.6375 423.23125 195.80625 425.78125 213.03125 427.78125 C 229.36875 430.13125 245.76875 432.18125 262.15625 434.15625 C 271.96875 435.50625 281.84375 436.85 291.78125 436.5625 C 299.01875 435.85 306.45 436.7625 313.3125 439.125 C 315.5125 442.95 317.075 447.6 315.8125 452 C 313.7625 459.7 309.9 466.7 306.1875 473.6875 C 301.175 482.8625 293.5 490.1375 285.9375 497.1875 C 277.6125 504.3625 268.14375 510.44375 257.65625 513.90625 C 244.26875 518.45625 230.7 522.51875 216.9375 525.78125 C 210.2375 527.30625 202.9875 528.81875 196.375 526.15625 C 188.4375 523.01875 181.51875 517.8125 174.78125 512.6875 C 171.70625 510.425 170.825 506.55 169.0625 503.375 C 165.0375 495.85 159.99375 488.9 156.21875 481.25 C 153.11875 475.325 150.63125 469.14375 147.90625 463.03125 C 142.88125 450.98125 138.6375 438.6375 135.125 426.0625 C 134.025 421.7875 128.28125 419.8125 128.65625 415.0625 C 128.36875 411.7 132.225 410.54375 134.3125 408.65625 z M 144.75 424.28125 C 142.36406 424.32773 139.97813 424.5625 137.59375 425.125 C 143.36875 441.25 149.7 457.475 159.75 471.5 C 164.7625 478.875 169.325 486.725 175.9375 492.8125 C 179.3625 496.125 182.7625 500.0375 182.875 505.0625 C 200.6 503.975 218.3125 501.375 235.5 496.75 C 248.3125 493.425 261.30625 490.225 273.28125 484.5 C 280.85625 479.375 287.93125 473.4 293.90625 466.4375 C 298.60625 460.3875 303.51875 454.0875 305.34375 446.5 C 297.95625 444.4625 290.38125 443.0625 282.78125 442.125 C 244.08125 435.8125 205.175 430.99375 166.25 426.28125 C 159.07812 425.8125 151.90781 424.1418 144.75 424.28125 z "
     transform="scale(0.8,0.8)"
     id="path14"
     style="fill:url(#radialGradient3025);fill-opacity:1" />
  <path
     fill="#000000"
     d=" M 310.43 201.37 C 312.87 200.23 315.23 202.63 316.44 204.55 C 320.44 210.90 323.95 217.54 327.72 224.03 C 335.08 237.01 343.05 249.64 350.33 262.66 C 356.24 273.41 362.32 284.07 367.98 294.96 C 370.89 301.28 375.05 306.96 377.61 313.45 C 378.16 315.23 378.65 317.81 376.66 318.89 C 374.54 319.39 372.12 319.12 370.69 317.31 C 365.59 312.14 362.38 305.49 358.10 299.67 C 347.37 284.59 336.35 269.70 324.65 255.35 C 319.82 249.84 315.55 243.83 310.25 238.74 C 308.34 236.87 306.65 234.81 305.00 232.71 C 300.43 227.63 294.34 224.08 290.29 218.50 C 288.92 216.22 291.16 214.13 292.71 212.69 C 297.97 208.03 303.88 203.99 310.43 201.37 Z"
     id="path18" />
</svg>
