<svg id="Layer" enable-background="new 0 0 64 64" height="512" viewBox="0 0 64 64" width="512" xmlns="http://www.w3.org/2000/svg"><path d="m54 24-12 12-6 6h-6v-6l12-12 6-6z" fill="#e1966d"/><path d="m42 36v18h-32v-36h32v6l-12 12v6h6z" fill="#ffe8b6"/><path d="m10 10h32v8h-32z" fill="#f3e64d"/><g fill="#532c00"><path d="m44 19.172v-11.172h-36v48h36v-19.171l12.829-12.829-8.829-8.829zm-32-7.172h28v4h-28zm28 40h-28v-32h28v3.172l-12 12v8.828h8.829l3.171-3.171zm-4.829-12h-3.171v-3.172l16-16 3.171 3.172z"/><path d="m16 24h12v4h-12z"/><path d="m16 34h8v4h-8z"/><path d="m16 44h8v4h-8z"/></g></svg>