<?xml version="1.0" encoding="UTF-8" standalone="no"?>
<svg
   xmlns:dc="http://purl.org/dc/elements/1.1/"
   xmlns:cc="http://creativecommons.org/ns#"
   xmlns:rdf="http://www.w3.org/1999/02/22-rdf-syntax-ns#"
   xmlns:svg="http://www.w3.org/2000/svg"
   xmlns="http://www.w3.org/2000/svg"
   xmlns:xlink="http://www.w3.org/1999/xlink"
   xmlns:sodipodi="http://sodipodi.sourceforge.net/DTD/sodipodi-0.dtd"
   xmlns:inkscape="http://www.inkscape.org/namespaces/inkscape"
   width="500pt"
   height="500pt"
   viewBox="0 0 500 500"
   version="1.1"
   id="svg2"
   inkscape:version="0.48.5 r10040"
   sodipodi:docname="布丁繪圖頭像 (有框有背景).svg"
   inkscape:export-filename="D:\OUTTY_DOCUMENT\基本文件\2011~2015 政大圖檔所博士班\布丁繪圖頭像 (無框有背景).png"
   inkscape:export-xdpi="80.540001"
   inkscape:export-ydpi="80.540001">
  <metadata
     id="metadata40">
    <rdf:RDF>
      <cc:Work
         rdf:about="">
        <dc:format>image/svg+xml</dc:format>
        <dc:type
           rdf:resource="http://purl.org/dc/dcmitype/StillImage" />
        <dc:title />
      </cc:Work>
    </rdf:RDF>
  </metadata>
  <defs
     id="defs38">
    <linearGradient
       id="linearGradient3019">
      <stop
         style="stop-color:#996931;stop-opacity:1;"
         offset="0"
         id="stop3021" />
      <stop
         style="stop-color:#ce8e42;stop-opacity:1;"
         offset="1"
         id="stop3023" />
    </linearGradient>
    <radialGradient
       inkscape:collect="always"
       xlink:href="#linearGradient3019"
       id="radialGradient3002"
       gradientUnits="userSpaceOnUse"
       gradientTransform="matrix(0.02734734,-1.0561865,1.2463226,0.03227054,-269.76404,1043.1913)"
       cx="566.47192"
       cy="570.33453"
       fx="566.47192"
       fy="570.33453"
       r="277.98605" />
  </defs>
  <sodipodi:namedview
     pagecolor="#ffffff"
     bordercolor="#666666"
     borderopacity="1"
     objecttolerance="10"
     gridtolerance="10"
     guidetolerance="10"
     inkscape:pageopacity="0"
     inkscape:pageshadow="2"
     inkscape:window-width="1920"
     inkscape:window-height="1058"
     id="namedview36"
     showgrid="false"
     inkscape:zoom="6.0416001"
     inkscape:cx="596.83585"
     inkscape:cy="454.77083"
     inkscape:window-x="1602"
     inkscape:window-y="892"
     inkscape:window-maximized="1"
     inkscape:current-layer="svg2" />
  <rect
     style="fill:#b57939;fill-opacity:1;fill-rule:nonzero;stroke:none"
     id="rect3762"
     width="629.2052"
     height="627.33252"
     x="0"
     y="-0.459907"
     transform="scale(0.8,0.8)" />
  <path
     style="fill:#ffffff"
     d="M 321.125,28.5625 C 202.31064,28.4981 89.503611,111.80325 53.3125,224.65625 c -30.609691,93.02832 -9.569993,201.93852 55.90625,275.15625 6.07136,8.81769 21.54206,12.44559 28.65625,3.3125 -1.90298,-10.98443 -13.52602,-16.2804 -18.8125,-25.46875 C 69.826274,414.65087 51.906271,327.40777 73.84375,250.25 c 4.630782,-12.46458 17.605002,-19.3662 28.33901,-26.1176 14.09181,-8.37864 29.87323,-14.20098 42.37974,-24.97615 5.3958,-3.58227 1.20313,-10.1229 -2.65625,-13.0625 C 134.86519,180.0119 122.98882,179.01768 120,168.9375 c -3.55788,-9.74143 1.31016,-20.15284 8.66257,-26.624 43.16422,-49.911027 105.21914,-82.955284 170.80618,-91.0635 51.50917,-6.913617 104.78849,2.680614 150.86506,26.349686 20.14234,9.804806 39.28244,22.357942 57.57244,34.775314 5.96051,-7.19238 0.63012,-17.665032 -6.05734,-22.354748 C 484.79894,74.701009 463.61352,65.261733 443.55812,54.524274 405.3229,37.10251 363.29113,28.00409 321.125,28.5625 z"
     id="path3006"
     inkscape:connector-curvature="0" />
  <path
     d="m 106.29074,333.55811 c -0.23,-2.69 2.86,-3.63 4.53,-5.14 0.99,2.32 1.38,5.58 4.19,6.44 5.55,2.28 11.66,2.48 17.52,3.46 13.76,1.76 27.49,3.8 41.27,5.4 13.07,1.88 26.18,3.53 39.29,5.11 7.85,1.08 15.75,2.14 23.7,1.91 5.79,-0.57 11.73,0.17 17.22,2.06 1.76,3.06 3.02,6.77 2.01,10.29 -1.64,6.16 -4.74,11.78 -7.71,17.37 -4.01,7.34 -10.15,13.15 -16.2,18.79 -6.66,5.74 -14.22,10.6 -22.61,13.37 -10.71,3.64 -21.57,6.89 -32.58,9.5 -5.36,1.22 -11.17,2.43 -16.46,0.3 -6.35,-2.51 -11.87,-6.66 -17.26,-10.76 -2.46,-1.81 -3.18,-4.91 -4.59,-7.45 -3.22,-6.02 -7.24,-11.58 -10.26,-17.7 -2.48,-4.74 -4.48,-9.7 -6.66,-14.59 -4.02,-9.64 -7.42,-19.52 -10.23,-29.58 -0.88,-3.42 -5.47,-4.98 -5.17,-8.78 z"
     id="path28"
     inkscape:connector-curvature="0"
     style="fill:#000000" />
  <path
     style="fill:#000000"
     d="M 321.15625,34.5625 C 238.23582,35.353488 156.95313,75.392317 105.9975,140.49674 77.73488,175.87482 58.852734,218.56347 50,262.90625 c -4.968084,16.75509 -3.259081,34.55376 -4.34375,51.84375 0.08589,68.16964 26.064067,135.59009 71.84375,186.0625 3.93347,2.09351 9.70805,0.12567 13.125,0.3125 C 106.0703,475.27985 87.467935,443.75844 75.15625,410.28125 55.731136,357.53417 53.119529,298.33548 68.409978,244.20757 69.989408,236.21699 79.294516,233.81923 84.775612,228.76677 102.70228,216.1342 122.183,205.1125 141.84375,196.0625 c -3.08573,-6.0001 -10.13604,-9.37188 -16.28125,-11.28125 -5.82939,1.5715 -9.21028,7.79346 -14.45736,10.76807 C 98.511162,205.69945 86.035745,215.99019 73.875,226.65625 103.54747,138.61179 181.58185,69.474084 272.28125,49.875 c 78.53695,-17.622305 164.60883,1.441072 227.62047,51.43299 3.01347,3.50603 4.64012,2.93295 3.22328,-1.33924 -1.36318,-4.716929 -7.46375,-5.767762 -10.50376,-9.359567 C 443.78595,53.775542 382.48398,33.745617 321.15625,34.5625 z"
     id="path6"
     inkscape:connector-curvature="0" />
  <path
     d="m 332.72074,43.448106 c -31.50743,-0.15625 -63.05,5.11875 -92.7,15.775 -38.73,13.82 -74.225,36.56 -103.075,65.850004 -18.2,18.3 -33.4,39.47 -45.85,62.05 -6.39,12.54 -12.89,25.205 -16.65,38.825 7.6,-5.77 14.415,-12.55 21.925,-18.45 7.25,-5.73 14.405,-11.565 21.425,-17.575 2.47,-1.92 4.7,-4.275 7.65,-5.475 3.64,0.87 6.825,2.995 9.925,5.025 2.53,1.84 5.6,3.485 6.5,6.725 -4.35,2.42 -9.07,4.015 -13.5,6.275 -14.85,7.32 -28.669998,16.505 -42.55,25.475 -4.75,3.64 -9.985,6.615 -14.625,10.425 -2.1,1.6 -2.51,4.37 -3.2,6.75 -15.95,59.47 -11.715,124.565 13.525,180.875 11.9,27.75 28.81,53.31 49.25,75.5 l 35.025,0 54.6,0 143,0 139.975,0 0,-104.1 0,-121.3 0,-79.625 0,-92.45 c -33.27,-26.590004 -72.57,-45.915004 -114.4,-54.425004 -18.465,-4.00875 -37.34555,-6.05625 -56.25,-6.15 z m -17.575,159.125004 c 1.92756,0.0375 3.69187,1.915 4.675,3.475 4,6.35 7.505,12.985 11.275,19.475 7.36,12.98 15.32,25.605 22.6,38.625 5.91,10.75 11.99,21.41 17.65,32.3 2.91,6.32 7.065,12.01 9.625,18.5 0.55,1.78 1.04,4.37 -0.95,5.45 -2.12,0.5 -4.52,0.21 -5.95,-1.6 -5.1,-5.17 -8.32,-11.805 -12.6,-17.625 -10.73,-15.08 -21.75,-29.975 -33.45,-44.325 -4.83,-5.51 -9.1,-11.51 -14.4,-16.6 -1.91,-1.87 -3.6,-3.95 -5.25,-6.05 -4.57,-5.08 -10.65,-8.62 -14.7,-14.2 -1.37,-2.28 0.85,-4.36 2.4,-5.8 5.26,-4.66 11.175,-8.705 17.725,-11.325 0.45749,-0.21375 0.90517,-0.30866 1.35,-0.3 z m -204.325,125.85 c 0.99,2.32 1.39,5.565 4.2,6.425 5.55,2.28 11.64,2.495 17.5,3.475 13.76,1.76 27.495,3.8 41.275,5.4 13.07,1.88 26.19,3.52 39.3,5.1 7.85,1.08 15.75,2.155 23.7,1.925 5.79,-0.57 11.735,0.16 17.225,2.05 1.76,3.06 3.01,6.78 2,10.3 -1.64,6.16 -4.73,11.76 -7.7,17.35 -4.01,7.34 -10.15,13.16 -16.2,18.8 -6.66,5.74 -14.235,10.605 -22.625,13.375 -10.71,3.64 -21.565,6.89 -32.575,9.5 -5.36,1.22 -11.16,2.43 -16.45,0.3 -6.35,-2.51 -11.885,-6.675 -17.275,-10.775 -2.46,-1.81 -3.165,-4.91 -4.575,-7.45 -3.22,-6.02 -7.255,-11.58 -10.275,-17.7 -2.48,-4.74 -4.47,-9.685 -6.65,-14.575 -4.02,-9.64 -7.415,-19.515 -10.225,-29.575 -0.88,-3.42 -5.475,-5 -5.175,-8.8 -0.23,-2.69 2.855,-3.615 4.525,-5.125 z m 8.35,12.5 c -1.90875,0.0372 -3.8175,0.225 -5.725,0.675 4.62,12.9 9.685,25.88 17.725,37.1 4.01,5.9 7.66,12.18 12.95,17.05 2.74,2.65 5.46,5.78 5.55,9.8 14.18,-0.87 28.35,-2.95 42.1,-6.65 10.25,-2.66 20.645,-5.22 30.225,-9.8 6.06,-4.1 11.72,-8.88 16.5,-14.45 3.76,-4.84 7.69,-9.88 9.15,-15.95 -5.91,-1.63 -11.97,-2.75 -18.05,-3.5 -30.96,-5.05 -62.085,-8.905 -93.225,-12.675 -5.73751,-0.375 -11.47375,-1.71156 -17.2,-1.6 z"
     id="path14"
     style="fill:url(#radialGradient3002);fill-opacity:1"
     inkscape:connector-curvature="0" />
  <path
     d="m 313.80074,202.86811 c 2.44,-1.14 4.8,1.26 6.01,3.18 4,6.35 7.51,12.99 11.28,19.48 7.36,12.98 15.33,25.61 22.61,38.63 5.91,10.75 11.99,21.41 17.65,32.3 2.91,6.32 7.07,12 9.63,18.49 0.55,1.78 1.04,4.36 -0.95,5.44 -2.12,0.5 -4.54,0.23 -5.97,-1.58 -5.1,-5.17 -8.31,-11.82 -12.59,-17.64 -10.73,-15.08 -21.75,-29.97 -33.45,-44.32 -4.83,-5.51 -9.1,-11.52 -14.4,-16.61 -1.91,-1.87 -3.6,-3.93 -5.25,-6.03 -4.57,-5.08 -10.66,-8.63 -14.71,-14.21 -1.37,-2.28 0.87,-4.37 2.42,-5.81 5.26,-4.66 11.17,-8.7 17.72,-11.32 z"
     id="path18"
     inkscape:connector-curvature="0"
     style="fill:#000000" />
</svg>
